<svg xmlns="http://www.w3.org/2000/svg" width="25" height="36" fill="none"><g clip-path="url(#a)"><path fill="#fff" d="M0 .5h25v35H0z"/><path fill="#313EF7" d="M5.106 22.06c.16.055.327.083.496.08l5.194-.163.673-.803a.318.318 0 0 1 .231-.114l5.68-.227a.319.319 0 0 1 .22.56l-.314.27 6.412-.262a.968.968 0 0 0 .574-1.716 6.456 6.456 0 0 0-4.946-1.396l-13.23 1.613a.317.317 0 0 1-.295-.129l-2.026-2.779A3.052 3.052 0 0 0 1.18 15.74l-.815.033 3.053 4.95a3.092 3.092 0 0 0 1.69 1.336Z"/><path fill="#313EF7" d="m7.48 27.376 7.26-6.236-4.627.184-4.52 5.392 1.888.66ZM15.9 18.408l-4.32-3.552-1.23.262 2.824 3.622 2.726-.332Z"/></g><defs><clipPath id="a"><path fill="#fff" d="M0 .5h25v35H0z"/></clipPath></defs></svg>