<svg xmlns="http://www.w3.org/2000/svg" width="1116" height="87" fill="none"><path fill="#fff" fill-opacity=".08" d="m.779 84.81-2.527-1.105-1.688 3.862H.78V84.81ZM36.775 2.464V-.293h-1.803l-.723 1.652 2.526 1.105Zm27.292 0 2.527-1.105-.723-1.652h-1.804v2.757Zm35.997 82.346v2.757h4.215l-1.688-3.862-2.527 1.105Zm-28.703 0-2.574.989.68 1.768h1.894V84.81ZM44.775 15.639v-2.757H40.76l1.44 3.746 2.574-.989Zm10.822 0 2.574.99 1.44-3.747h-4.014v2.757Zm-26.585 69.17v2.758h1.893l.68-1.768-2.573-.99Zm-6.823-14.351-2.6-.918-1.297 3.675h3.896v-2.757Zm7.058-19.998v-2.758h-1.951l-.65 1.84 2.6.917Zm37.879 0 2.6-.918-.65-1.84h-1.95v2.758Zm7.058 19.998v2.757h3.897l-1.297-3.675-2.6.918ZM3.304 85.914 39.303 3.568l-5.053-2.209-35.997 82.346 5.053 2.209ZM36.776 5.22h27.292V-.293H36.776V5.22Zm24.766-1.653 35.997 82.346 5.053-2.209L66.594 1.36 61.54 3.568Zm38.523 78.484H71.361v5.515h28.703v-5.514Zm-26.13 1.768L47.348 14.65l-5.147 1.978 26.586 69.17 5.147-1.978Zm-29.16-65.424h10.823v-5.514H44.775v5.514Zm8.25-3.746L26.438 83.82l5.147 1.979 26.586-69.17-5.147-1.98ZM29.012 82.053H.779v5.514h28.233v-5.514Zm-4.224-10.677 7.059-19.999-5.2-1.835-7.058 19.998 5.2 1.835Zm4.459-18.16h37.879v-5.514h-37.88v5.515Zm35.279-1.839 7.058 19.998 5.2-1.835-7.058-19.998-5.2 1.835Zm9.658 16.324H22.19v5.514h51.995v-5.514ZM196.247 84.81l-2.539 1.073.712 1.684h1.827V84.81Zm-34.82-82.346V-.293h-4.16l1.62 3.83 2.54-1.073Zm29.879 0 2.553-1.041-.699-1.716h-1.854v2.757Zm28.351 69.523v2.757h4.102l-1.549-3.798-2.553 1.041Zm-17.763 0-2.543-1.067-1.604 3.824h4.147v-2.757Zm29.174-69.523V-.293h-1.833l-.71 1.69 2.543 1.067Zm27.292 0 2.539 1.073 1.62-3.83h-4.159v2.757ZM223.539 84.81v2.757h1.828l.711-1.684-2.539-1.073Zm-24.752-1.074L163.966 1.39l-5.079 2.147 34.821 82.346 5.079-2.147ZM161.427 5.22h29.879V-.293h-29.879V5.22Zm27.326-1.716 28.351 69.523 5.106-2.082-28.351-69.523-5.106 2.082Zm30.904 65.725h-17.763v5.514h17.763V69.23Zm-15.221 3.824L233.61 3.53l-5.085-2.133-29.174 69.523 5.085 2.134Zm26.632-67.833h27.292V-.293h-27.292V5.22ZM255.82 1.39 221 83.736l5.078 2.147 34.821-82.346-5.079-2.147Zm-32.281 80.662h-27.292v5.515h27.292v-5.514Zm108.165 2.758h-2.757v2.757h2.757V84.81Zm0-82.346V-.293h-2.757v2.757h2.757Zm27.763 0h2.757V-.293h-2.757v2.757Zm0 82.346v2.757h2.757V84.81h-2.757Zm-25.005 0V2.464h-5.515V84.81h5.515Zm-2.758-79.59h27.763V-.292h-27.763V5.22Zm25.006-2.756V84.81h5.514V2.464h-5.514Zm2.757 79.588h-27.763v5.515h27.763v-5.514Zm75.006 2.758-2.526-1.105-1.688 3.862h4.214V84.81ZM470.47 2.464V-.293h-1.804l-.722 1.652 2.526 1.105Zm27.292 0 2.526-1.105-.722-1.652h-1.804v2.757Zm35.997 82.346v2.757h4.214l-1.688-3.862-2.526 1.105Zm-28.703 0-2.574.989.679 1.768h1.895V84.81ZM478.47 15.639v-2.757h-4.014l1.44 3.746 2.574-.989Zm10.822 0 2.574.99 1.44-3.747h-4.014v2.757Zm-26.586 69.17v2.758h1.894l.68-1.768-2.574-.99Zm-6.823-14.351-2.6-.918-1.297 3.675h3.897v-2.757Zm7.058-19.998v-2.758h-1.95l-.649 1.84 2.599.917Zm37.88 0 2.6-.918-.65-1.84h-1.95v2.758Zm7.058 19.998v2.757h3.897l-1.297-3.675-2.6.918ZM437 85.914l35.997-82.346-5.053-2.209-35.997 82.346L437 85.914ZM470.47 5.22h27.292V-.293H470.47V5.22Zm24.766-1.653 35.997 82.346 5.052-2.209L500.288 1.36l-5.052 2.209Zm38.523 78.484h-28.703v5.515h28.703v-5.514Zm-26.13 1.768-26.586-69.17-5.147 1.978 26.586 69.17 5.147-1.978ZM478.47 18.396h10.822v-5.514H478.47v5.514Zm8.249-3.746-26.586 69.17 5.147 1.979 26.586-69.17-5.147-1.98Zm-24.013 67.403h-28.233v5.514h28.233v-5.514Zm-4.223-10.677 7.058-19.999-5.199-1.835-7.059 19.998 5.2 1.835Zm4.458-18.16h37.88v-5.514h-37.88v5.515Zm35.28-1.839 7.058 19.998 5.2-1.835-7.058-19.998-5.2 1.835Zm9.658 16.324h-51.996v5.514h51.996v-5.514ZM622.517 84.81h-2.757v2.757h2.757V84.81Zm0-60.819h2.757v-2.757h-2.757v2.757Zm-24.116 0h-2.757v2.757h2.757v-2.757Zm0-21.527V-.293h-2.757v2.757h2.757Zm75.994 0h2.757V-.293h-2.757v2.757Zm0 21.527v2.757h2.757v-2.757h-2.757Zm-24.116 0v-2.757h-2.757v2.757h2.757Zm0 60.819v2.757h2.757V84.81h-2.757Zm-25.005 0V23.99h-5.514V84.81h5.514Zm-2.757-63.576h-24.116v5.514h24.116v-5.514Zm-21.358 2.757V2.464h-5.515V23.99h5.515Zm-2.758-18.77h75.994V-.293h-75.994V5.22Zm73.237-2.757V23.99h5.514V2.464h-5.514Zm2.757 18.77h-24.116v5.514h24.116v-5.514Zm-26.873 2.757V84.81h5.514V23.99h-5.514Zm2.757 58.061h-27.762v5.515h27.762v-5.514Zm101.909 2.758h-2.757v2.757h2.757V84.81Zm0-82.346V-.293h-2.757v2.757h2.757Zm27.762 0h2.757V-.293h-2.757v2.757Zm0 82.346v2.757h2.757V84.81h-2.757Zm-25.005 0V2.464h-5.514V84.81h5.514Zm-2.757-79.59h27.762V-.292h-27.762V5.22Zm25.005-2.756V84.81h5.514V2.464h-5.514Zm2.757 79.588h-27.762v5.515h27.762v-5.514Zm108.533 1.464-.968 2.581.012.005.956-2.586Zm-14.704-8.94-1.892 2.005.01.01.01.009 1.872-2.025Zm-9.764-13.764-2.53 1.095.006.016.008.015 2.516-1.126Zm0-34.35-2.516-1.127-.004.009-.004.008 2.524 1.11Zm9.764-13.646 1.871 2.024.011-.01.01-.009-1.892-2.005Zm14.704-9.058-.956-2.586-.012.004.968 2.582Zm37.174 0-.968 2.581.968-2.581Zm14.704 9.058-1.892 2.005.01.01.011.01 1.871-2.025Zm9.647 13.646-2.531 1.095.01.023.011.023 2.51-1.141Zm0 34.35-2.517-1.127-.007.016-.007.015 2.531 1.096Zm-9.647 13.763 1.872 2.025.01-.01.01-.01-1.892-2.005Zm-14.704 8.94-.968-2.581.968 2.582Zm-11.411-20.704-1.054-2.547-.016.006-.016.007 1.086 2.534Zm5.882-4-1.993-1.905-.002.002 1.995 1.904Zm3.999-6.47 2.582.969.005-.013.005-.013-2.592-.942Zm0-17.292-2.591.942.005.013.005.013 2.581-.968Zm-3.999-6.47-2.036 1.86.042.045.044.045 1.95-1.95Zm-5.882-4.117-1.086 2.534.016.007.016.006 1.054-2.547Zm-14.469 0-1.055-2.548-.016.007-.016.007 1.087 2.534Zm-5.882 4.117-1.993-1.906-.002.002 1.995 1.904Zm-3.882 6.47 2.581.968.005-.013.005-.013-2.591-.942Zm0 17.293-2.591.942.004.013.005.013 2.582-.968Zm3.882 6.47-2.036 1.859.042.046.044.044 1.95-1.95Zm5.882 4-1.087 2.534.016.006.016.007 1.055-2.548Zm7.293 21.123c-6.37 0-12.238-1.011-17.63-3.005l-1.913 5.171c6.058 2.241 12.581 3.348 19.543 3.348v-5.514Zm-17.619-3.001c-5.334-2-9.923-4.799-13.801-8.383l-3.743 4.049c4.436 4.1 9.649 7.263 15.608 9.497l1.936-5.163Zm-13.78-8.364c-3.891-3.67-6.934-7.96-9.14-12.885l-5.032 2.253c2.499 5.583 5.965 10.47 10.388 14.643l3.784-4.011Zm-9.126-12.854c-2.113-4.88-3.184-10.23-3.184-16.08h-5.515c0 6.542 1.203 12.643 3.639 18.27l5.06-2.19Zm-3.184-16.08c0-5.934 1.073-11.275 3.178-16.065l-5.048-2.219c-2.444 5.563-3.645 11.67-3.645 18.285h5.515Zm3.17-16.048c2.204-4.92 5.241-9.162 9.119-12.748l-3.743-4.049c-4.434 4.1-7.906 8.956-10.408 14.544l5.032 2.253Zm9.14-12.767c3.875-3.656 8.458-6.486 13.78-8.482l-1.936-5.163c-5.97 2.239-11.19 5.448-15.628 9.634l3.784 4.011Zm13.769-8.477c5.392-1.995 11.26-3.005 17.63-3.005v-5.515c-6.962 0-13.485 1.107-19.543 3.348l1.913 5.172Zm17.63-3.005c6.453 0 12.316 1.012 17.619 3l1.936-5.163c-5.991-2.246-12.519-3.352-19.555-3.352V3.34Zm17.619 3c5.322 1.996 9.905 4.826 13.78 8.482l3.784-4.01c-4.437-4.187-9.658-7.396-15.628-9.635l-1.936 5.163Zm13.801 8.501c3.871 3.58 6.864 7.81 8.987 12.717l5.061-2.19c-2.425-5.603-5.863-10.47-10.305-14.576l-3.743 4.05Zm9.008 12.762c2.173 4.783 3.282 10.113 3.282 16.035h5.514c0-6.627-1.245-12.746-3.776-18.316l-5.02 2.281Zm3.282 16.035c0 5.837-1.107 11.174-3.289 16.048l5.033 2.253c2.523-5.635 3.77-11.748 3.77-18.301h-5.514Zm-3.303 16.08a38.495 38.495 0 0 1-9.008 12.853l3.784 4.01a44.011 44.011 0 0 0 10.285-14.673l-5.061-2.19ZM938.49 72.55c-3.878 3.584-8.467 6.383-13.801 8.383l1.936 5.163c5.959-2.234 11.172-5.397 15.608-9.497l-3.743-4.05Zm-13.801 8.383c-5.303 1.989-11.166 3-17.619 3v5.515c7.036 0 13.564-1.105 19.555-3.352l-1.936-5.163ZM907.07 66.98c2.93 0 5.695-.534 8.262-1.634l-2.172-5.069c-1.825.782-3.844 1.189-6.09 1.189v5.514Zm8.23-1.62c2.618-1.084 4.902-2.632 6.822-4.645l-3.989-3.807c-1.373 1.439-3.01 2.557-4.941 3.356l2.108 5.095Zm6.82-4.642c2.002-2.093 3.527-4.576 4.589-7.408l-5.163-1.936c-.82 2.186-1.962 4.017-3.411 5.532l3.985 3.812Zm4.599-7.434c1.067-2.936 1.577-6.163 1.577-9.647h-5.514c0 2.947-.431 5.522-1.246 7.763l5.183 1.884Zm1.577-9.647c0-3.482-.509-6.682-1.587-9.556l-5.163 1.936c.804 2.145 1.236 4.67 1.236 7.62h5.514Zm-1.577-9.53c-1.061-2.918-2.597-5.433-4.642-7.477l-3.899 3.899c1.406 1.405 2.537 3.204 3.358 5.462l5.183-1.884Zm-4.555-7.387a19.072 19.072 0 0 0-6.864-4.806l-2.108 5.095a13.558 13.558 0 0 1 4.9 3.43l4.072-3.719Zm-6.832-4.792c-2.567-1.1-5.332-1.635-8.262-1.635v5.514c2.246 0 4.265.407 6.09 1.189l2.172-5.068Zm-8.262-1.635c-2.931 0-5.722.535-8.348 1.621l2.109 5.095c1.923-.795 3.994-1.202 6.239-1.202v-5.514Zm-8.38 1.635c-2.552 1.093-4.817 2.685-6.788 4.745l3.985 3.812c1.48-1.548 3.136-2.7 4.976-3.489l-2.173-5.068Zm-6.79 4.747c-1.947 2.04-3.427 4.54-4.478 7.432l5.182 1.884c.831-2.284 1.939-4.098 3.285-5.508l-3.989-3.808Zm-4.469 7.406c-1.078 2.874-1.587 6.074-1.587 9.556h5.514c0-2.95.432-5.475 1.236-7.62l-5.163-1.936Zm-1.587 9.556c0 3.483.51 6.711 1.578 9.647l5.182-1.884c-.815-2.24-1.246-4.816-1.246-7.763h-5.514Zm1.587 9.673c1.053 2.806 2.522 5.273 4.428 7.36l4.072-3.717c-1.388-1.52-2.507-3.367-3.337-5.58l-5.163 1.937Zm4.514 7.451a21.398 21.398 0 0 0 6.745 4.585l2.173-5.069a15.885 15.885 0 0 1-5.019-3.415l-3.899 3.9Zm6.777 4.598c2.626 1.087 5.417 1.621 8.348 1.621v-5.514c-2.245 0-4.316-.407-6.239-1.202l-2.109 5.095ZM1034.2 84.81h-2.76v2.758h2.76V84.81Zm0-82.345V-.293h-2.76v2.757h2.76Zm22.82 0 2.11-1.768-.82-.99h-1.29v2.758Zm41.88 50.113v2.757h5.89l-3.78-4.525-2.11 1.768Zm-10.59 0h-2.76v2.757h2.76v-2.757Zm0-50.113V-.293h-2.76v2.757h2.76Zm27.05 0h2.76V-.293h-2.76v2.757Zm0 82.346v2.757h2.76V84.81h-2.76Zm-22.82 0-2.11 1.768.82.989h1.29V84.81Zm-41.88-50.114V31.94h-5.89l3.78 4.525 2.11-1.768Zm10.59 0h2.76V31.94h-2.76v2.757Zm0 50.114v2.757h2.76V84.81h-2.76Zm-24.3 0V2.464h-5.51V84.81h5.51Zm-2.75-79.59h22.82V-.292h-22.82V5.22Zm20.7-.988 41.88 50.113 4.23-3.536L1059.13.696l-4.23 3.536Zm44 45.588h-10.59v5.514h10.59V49.82Zm-7.83 2.757V2.464h-5.52v50.113h5.52Zm-2.76-47.356h27.05V-.293h-27.05V5.22Zm24.3-2.757V84.81h5.51V2.464h-5.51Zm2.75 79.588h-22.82v5.515h22.82v-5.514Zm-20.7.99-41.88-50.114-4.23 3.536 41.88 50.114 4.23-3.536Zm-44-45.589h10.59V31.94h-10.59v5.514Zm7.83-2.757V84.81h5.52V34.696h-5.52Zm2.76 47.356h-27.05v5.515h27.05v-5.514Z"/></svg>