<svg xmlns="http://www.w3.org/2000/svg" width="18" height="17" fill="none"><path fill="#17181C" d="M.924 1.932c0-.542.19-.989.573-1.341.382-.352.879-.528 1.49-.528.6 0 1.086.173 1.457.52.382.357.573.823.573 1.398 0 .52-.186.954-.557 1.3-.382.358-.884.537-1.506.537h-.016c-.6 0-1.086-.179-1.458-.537-.37-.357-.556-.807-.556-1.349Zm.213 14.225V5.297H4.77v10.86H1.137Zm5.648 0h3.635v-6.064c0-.38.043-.672.13-.878.153-.368.385-.68.696-.935.311-.254.702-.382 1.171-.382 1.223 0 1.834.819 1.834 2.455v5.804h3.634V9.931c0-1.604-.382-2.821-1.146-3.65-.764-.83-1.773-1.244-3.029-1.244-1.408 0-2.505.602-3.29 1.805v.032h-.017l.017-.032V5.297H6.785c.022.347.033 1.425.033 3.235 0 1.81-.011 4.352-.033 7.625Z"/></svg>