<svg xmlns="http://www.w3.org/2000/svg" width="41" height="40" fill="none"><path fill="#030522" d="M33.713 29.267a1 1 0 0 0 1-1v-8.72a1.937 1.937 0 0 0-1.934-1.934h-2.252V10.8C30.523 5.021 25.84.34 20.062.333 14.282.34 9.6 5.021 9.594 10.8v6.807H7.342A1.937 1.937 0 0 0 5.41 19.54v15.252a4.88 4.88 0 0 0 4.875 4.875h19.554a4.88 4.88 0 0 0 4.875-4.875 1 1 0 0 0-2 0 2.88 2.88 0 0 1-2.875 2.875H10.283a2.88 2.88 0 0 1-2.874-2.875l-.067-15.185h3.252a1 1 0 0 0 1-1V10.8c.39-11.201 16.544-11.203 16.934 0v6.807H17.393a1 1 0 0 0 0 2c2.556-.014 12.99-.05 15.319-.067v8.727a1 1 0 0 0 1 1Z"/><path fill="#030522" d="M17.856 28.636c.05 2.899 4.361 2.899 4.41 0-.048-2.899-4.36-2.899-4.41 0Z"/></svg>