<svg xmlns="http://www.w3.org/2000/svg" width="177" height="80" fill="none"><g filter="url(#a)"><rect width="137" height="40" x="20" fill="#fff" rx="20" shape-rendering="crispEdges"/><rect width="30" height="30" x="25" y="5" fill="#313EF7" rx="15"/><path fill="#fff" d="M40 20c.459 0 .852-.163 1.178-.49.326-.326.49-.718.49-1.177 0-.458-.164-.85-.49-1.177a1.607 1.607 0 0 0-1.177-.49c-.459 0-.85.164-1.177.49-.327.327-.49.72-.49 1.177 0 .459.163.851.49 1.177.326.327.718.49 1.177.49Zm0 8.333c-2.236-1.902-3.906-3.67-5.01-5.302-1.104-1.632-1.656-3.142-1.656-4.53 0-2.084.67-3.744 2.01-4.98 1.34-1.236 2.893-1.854 4.657-1.854 1.764 0 3.316.618 4.656 1.854 1.34 1.236 2.01 2.896 2.01 4.98 0 1.388-.552 2.898-1.656 4.53-1.104 1.632-2.774 3.4-5.01 5.302Z"/><path fill="#000" d="M64.504 26V14.8h1.712l7.024 8.624h-.848V14.8h2.064V26h-1.712l-7.024-8.624h.848V26h-2.064Zm16.777.112c-.95 0-1.781-.187-2.496-.56a4.242 4.242 0 0 1-1.648-1.568c-.384-.661-.576-1.413-.576-2.256 0-.853.187-1.605.56-2.256a4.133 4.133 0 0 1 1.568-1.552c.672-.373 1.435-.56 2.288-.56.832 0 1.573.181 2.224.544.65.363 1.163.875 1.536 1.536.374.661.56 1.44.56 2.336 0 .085-.005.181-.016.288 0 .107-.005.208-.016.304h-7.12V21.04h6.064l-.784.416c.01-.49-.09-.923-.304-1.296a2.323 2.323 0 0 0-.88-.88c-.362-.213-.784-.32-1.264-.32-.49 0-.922.107-1.296.32-.362.213-.65.512-.864.896-.202.373-.304.816-.304 1.328v.32c0 .512.117.965.352 1.36.235.395.566.699.992.912.427.213.918.32 1.472.32.48 0 .912-.075 1.296-.224.384-.15.725-.384 1.024-.704l1.072 1.232c-.384.448-.87.795-1.456 1.04-.576.235-1.237.352-1.984.352ZM88.95 26l-3.136-8.544h1.888l2.688 7.536h-.896l2.816-7.536h1.68l2.736 7.536h-.88l2.768-7.536h1.776L97.238 26h-1.92l-2.496-6.672h.592L90.87 26h-1.92Zm20.181 0v-4.432l.464 1.28-4.864-8.048h2.224l3.904 6.48h-1.248l3.936-6.48h2.048l-4.864 8.048.48-1.28V26h-2.08Zm10.521.112c-.875 0-1.653-.187-2.336-.56a4.304 4.304 0 0 1-1.616-1.568c-.395-.661-.592-1.413-.592-2.256 0-.853.197-1.605.592-2.256a4.186 4.186 0 0 1 1.616-1.552c.683-.373 1.461-.56 2.336-.56.885 0 1.669.187 2.352.56a4.08 4.08 0 0 1 1.616 1.536c.395.65.592 1.408.592 2.272 0 .843-.197 1.595-.592 2.256a4.158 4.158 0 0 1-1.616 1.568c-.683.373-1.467.56-2.352.56Zm0-1.712c.491 0 .928-.107 1.312-.32.384-.213.683-.523.896-.928.224-.405.336-.88.336-1.424 0-.555-.112-1.03-.336-1.424a2.211 2.211 0 0 0-.896-.928 2.623 2.623 0 0 0-1.296-.32c-.491 0-.928.107-1.312.32a2.35 2.35 0 0 0-.896.928c-.224.395-.336.87-.336 1.424 0 .544.112 1.019.336 1.424.224.405.523.715.896.928.384.213.816.32 1.296.32Zm6.473 1.6v-8.544h1.904v2.352l-.224-.688a2.712 2.712 0 0 1 1.2-1.312c.554-.299 1.242-.448 2.064-.448v1.904a1.002 1.002 0 0 0-.24-.032 1.588 1.588 0 0 0-.224-.016c-.758 0-1.36.224-1.808.672-.448.437-.672 1.093-.672 1.968V26h-2Zm8.272-1.904.048-2.512 4.464-4.128h2.4l-3.792 3.808-1.056.88-2.064 1.952ZM132.765 26V14.128h2V26h-2Zm6.448 0-3.12-3.856 1.264-1.6L141.645 26h-2.432Z"/></g><defs><filter id="a" width="177" height="80" x="0" y="0" color-interpolation-filters="sRGB" filterUnits="userSpaceOnUse"><feFlood flood-opacity="0" result="BackgroundImageFix"/><feColorMatrix in="SourceAlpha" result="hardAlpha" values="0 0 0 0 0 0 0 0 0 0 0 0 0 0 0 0 0 0 127 0"/><feOffset dy="20"/><feGaussianBlur stdDeviation="10"/><feComposite in2="hardAlpha" operator="out"/><feColorMatrix values="0 0 0 0 0.48 0 0 0 0 0.35 0 0 0 0 1 0 0 0 0.08 0"/><feBlend in2="BackgroundImageFix" result="effect1_dropShadow_2_7516"/><feBlend in="SourceGraphic" in2="effect1_dropShadow_2_7516" result="shape"/></filter></defs></svg>