<svg xmlns="http://www.w3.org/2000/svg" width="122" height="80" fill="none"><g filter="url(#a)"><rect width="82" height="40" x="20" fill="#fff" rx="20" shape-rendering="crispEdges"/><rect width="30" height="30" x="25" y="5" fill="#F90" rx="15"/><path fill="#fff" d="m40 10 2.245 6.91h7.266l-5.878 4.27 2.245 6.91L40 23.82l-5.878 4.27 2.245-6.91-5.878-4.27h7.266L40 10Z"/><path fill="#000" d="M67.416 26.16c-.79 0-1.563-.112-2.32-.336-.747-.235-1.376-.555-1.888-.96l.88-1.616c.405.33.896.597 1.472.8a5.546 5.546 0 0 0 1.824.304c.736 0 1.312-.155 1.728-.464.427-.31.64-.725.64-1.248 0-.352-.09-.661-.272-.928-.17-.267-.48-.47-.928-.608-.437-.139-1.04-.208-1.808-.208H64.04l.576-6.096h6.576v1.744h-5.808l1.088-.992-.432 4.56-1.088-.976h2.256c1.11 0 2 .15 2.672.448.683.288 1.179.693 1.488 1.216.32.512.48 1.099.48 1.76 0 .65-.16 1.248-.48 1.792-.32.544-.81.981-1.472 1.312-.65.33-1.477.496-2.48.496Zm6.88-.048c-.363 0-.672-.123-.928-.368a1.302 1.302 0 0 1-.384-.96c0-.405.128-.725.384-.96.256-.245.565-.368.928-.368.362 0 .672.123.928.368.256.235.384.555.384.96 0 .384-.128.704-.384.96a1.293 1.293 0 0 1-.928.368Zm7.142.048a4.426 4.426 0 0 1-2.4-.672c-.703-.448-1.258-1.099-1.663-1.952-.406-.864-.609-1.91-.609-3.136 0-1.227.203-2.267.608-3.12.406-.864.96-1.52 1.665-1.968a4.426 4.426 0 0 1 2.4-.672c.896 0 1.696.224 2.4.672.704.448 1.258 1.104 1.663 1.968.416.853.624 1.893.624 3.12s-.208 2.272-.624 3.136c-.405.853-.96 1.504-1.663 1.952-.704.448-1.504.672-2.4.672Zm0-1.808c.523 0 .977-.139 1.36-.416.385-.288.683-.725.897-1.312.224-.587.336-1.328.336-2.224 0-.907-.113-1.648-.337-2.224-.213-.587-.511-1.019-.895-1.296-.385-.288-.838-.432-1.36-.432-.502 0-.95.144-1.344.432-.385.277-.689.71-.912 1.296-.214.576-.32 1.317-.32 2.224 0 .896.106 1.637.32 2.224.223.587.527 1.024.911 1.312.395.277.843.416 1.345.416Z"/></g><defs><filter id="a" width="122" height="80" x="0" y="0" color-interpolation-filters="sRGB" filterUnits="userSpaceOnUse"><feFlood flood-opacity="0" result="BackgroundImageFix"/><feColorMatrix in="SourceAlpha" result="hardAlpha" values="0 0 0 0 0 0 0 0 0 0 0 0 0 0 0 0 0 0 127 0"/><feOffset dy="20"/><feGaussianBlur stdDeviation="10"/><feComposite in2="hardAlpha" operator="out"/><feColorMatrix values="0 0 0 0 0.48 0 0 0 0 0.35 0 0 0 0 1 0 0 0 0.08 0"/><feBlend in2="BackgroundImageFix" result="effect1_dropShadow_2_7510"/><feBlend in="SourceGraphic" in2="effect1_dropShadow_2_7510" result="shape"/></filter></defs></svg>