<svg xmlns="http://www.w3.org/2000/svg" width="398" height="513" fill="none"><g filter="url(#a)"><path fill="#fff" fill-rule="evenodd" d="M4 30C4 13.431 17.431 0 34 0h330c16.569 0 30 13.431 30 30v310.007c-10.221.264-18.418 7.995-18.418 17.493 0 9.498 8.197 17.229 18.418 17.493V475c0 16.569-13.431 30-30 30H34c-16.569 0-30-13.431-30-30V374.823c9.187-1.214 16.249-8.507 16.249-17.323S13.187 341.391 4 340.177V30Z" clip-rule="evenodd"/><g clip-path="url(#b)"><rect width="146" height="36" x="34" y="30" fill="#313EF7" fill-opacity=".1" rx="18"/><path fill="#313EF7" d="M47.527 47.632h5.76v1.36h-5.76v-1.36Zm.144 4.976h6.528V54H46.07V42.8h7.904v1.392H47.67v8.416Zm12.481 1.488c-.864 0-1.637-.187-2.32-.56A4.136 4.136 0 0 1 56.248 52c-.384-.65-.576-1.397-.576-2.24 0-.843.192-1.59.576-2.24A4.021 4.021 0 0 1 57.832 46c.683-.373 1.456-.56 2.32-.56.768 0 1.45.155 2.048.464a3.176 3.176 0 0 1 1.408 1.344L62.44 48a2.528 2.528 0 0 0-1.024-.912 2.76 2.76 0 0 0-1.28-.304c-.555 0-1.05.123-1.488.368a2.706 2.706 0 0 0-1.04 1.04c-.256.437-.384.96-.384 1.568 0 .608.128 1.136.384 1.584.256.448.603.795 1.04 1.04.437.245.933.368 1.488.368.459 0 .885-.096 1.28-.288a2.653 2.653 0 0 0 1.024-.928l1.168.736c-.33.587-.8 1.04-1.408 1.36-.597.31-1.28.464-2.048.464Zm8.952 0c-.854 0-1.611-.187-2.272-.56A4.168 4.168 0 0 1 65.264 52c-.384-.661-.576-1.408-.576-2.24 0-.843.192-1.59.576-2.24A4.051 4.051 0 0 1 66.832 46c.661-.373 1.418-.56 2.272-.56.842 0 1.594.187 2.256.56.672.363 1.194.87 1.568 1.52.384.64.576 1.387.576 2.24 0 .843-.192 1.59-.576 2.24a4.02 4.02 0 0 1-1.568 1.536c-.662.373-1.414.56-2.256.56Zm0-1.344c.544 0 1.029-.123 1.456-.368a2.596 2.596 0 0 0 1.024-1.04c.245-.459.368-.987.368-1.584 0-.608-.123-1.13-.368-1.568a2.596 2.596 0 0 0-1.024-1.04 2.868 2.868 0 0 0-1.456-.368c-.544 0-1.03.123-1.456.368a2.74 2.74 0 0 0-1.024 1.04c-.256.437-.384.96-.384 1.568 0 .597.128 1.125.384 1.584a2.74 2.74 0 0 0 1.024 1.04c.426.245.912.368 1.456.368Zm11.052-7.312c.693 0 1.301.133 1.824.4.533.267.95.672 1.248 1.216.299.544.448 1.232.448 2.064V54H82.14v-4.704c0-.821-.203-1.44-.608-1.856-.395-.416-.955-.624-1.68-.624-.544 0-1.019.107-1.424.32-.406.213-.72.528-.944.944-.213.416-.32.933-.32 1.552V54h-1.536v-8.48H77.1v2.288l-.24-.608a2.945 2.945 0 0 1 1.28-1.296c.576-.31 1.248-.464 2.016-.464Zm9.994 8.656c-.853 0-1.61-.187-2.272-.56A4.168 4.168 0 0 1 86.312 52c-.385-.661-.577-1.408-.577-2.24 0-.843.193-1.59.577-2.24A4.051 4.051 0 0 1 87.877 46c.662-.373 1.42-.56 2.272-.56.843 0 1.595.187 2.256.56.672.363 1.195.87 1.569 1.52.384.64.576 1.387.576 2.24 0 .843-.192 1.59-.576 2.24a4.02 4.02 0 0 1-1.569 1.536c-.66.373-1.413.56-2.256.56Zm0-1.344c.544 0 1.03-.123 1.456-.368a2.597 2.597 0 0 0 1.025-1.04c.245-.459.368-.987.368-1.584 0-.608-.123-1.13-.368-1.568a2.597 2.597 0 0 0-1.025-1.04 2.868 2.868 0 0 0-1.456-.368c-.544 0-1.029.123-1.456.368a2.74 2.74 0 0 0-1.023 1.04c-.257.437-.385.96-.385 1.568 0 .597.129 1.125.385 1.584a2.74 2.74 0 0 0 1.023 1.04c.427.245.912.368 1.456.368Zm17.133-7.312c.682 0 1.285.133 1.808.4.522.267.928.672 1.216 1.216.298.544.448 1.232.448 2.064V54h-1.536v-4.704c0-.821-.192-1.44-.576-1.856-.384-.416-.923-.624-1.616-.624-.512 0-.96.107-1.344.32a2.191 2.191 0 0 0-.896.944c-.203.416-.304.933-.304 1.552V54h-1.536v-4.704c0-.821-.192-1.44-.576-1.856-.374-.416-.912-.624-1.616-.624-.502 0-.944.107-1.328.32a2.193 2.193 0 0 0-.896.944c-.214.416-.32.933-.32 1.552V54h-1.536v-8.48h1.472v2.256l-.24-.576a2.891 2.891 0 0 1 1.232-1.296c.554-.31 1.2-.464 1.936-.464.81 0 1.509.203 2.096.608.586.395.97.997 1.152 1.808l-.624-.256c.256-.65.704-1.173 1.344-1.568.64-.395 1.386-.592 2.24-.592Zm6.51 11.76c-.406 0-.8-.07-1.184-.208a2.698 2.698 0 0 1-.992-.576l.656-1.152c.213.203.448.357.704.464a2.1 2.1 0 0 0 .816.16c.373 0 .682-.096.928-.288.245-.192.474-.533.688-1.024l.528-1.168.16-.192 3.328-7.696h1.504l-4.112 9.328c-.246.597-.523 1.067-.832 1.408-.299.341-.63.581-.992.72-.363.15-.763.224-1.2.224Zm2.016-2.928-3.872-8.752h1.6l3.296 7.552-1.024 1.2Zm14.338-.144a7.79 7.79 0 0 1-2.448-.384c-.779-.267-1.392-.608-1.84-1.024l.592-1.248c.427.373.971.683 1.632.928a5.885 5.885 0 0 0 2.064.368c.651 0 1.179-.075 1.584-.224.405-.15.704-.352.896-.608.192-.267.288-.565.288-.896 0-.384-.128-.693-.384-.928-.245-.235-.571-.421-.976-.56a9.617 9.617 0 0 0-1.312-.384 26.54 26.54 0 0 1-1.456-.368 7.083 7.083 0 0 1-1.328-.56 2.757 2.757 0 0 1-.96-.896c-.245-.384-.368-.875-.368-1.472 0-.576.149-1.104.448-1.584.309-.49.779-.88 1.408-1.168.64-.299 1.451-.448 2.432-.448a7.48 7.48 0 0 1 1.936.256c.64.17 1.195.416 1.664.736l-.528 1.28c-.48-.32-.987-.55-1.52-.688a5.747 5.747 0 0 0-1.552-.224c-.629 0-1.147.08-1.552.24-.405.16-.704.373-.896.64a1.56 1.56 0 0 0-.272.896c0 .395.123.71.368.944.256.235.581.421.976.56.405.139.848.267 1.328.384.48.107.96.23 1.44.368.491.139.933.32 1.328.544.405.224.731.523.976.896s.368.853.368 1.44a2.92 2.92 0 0 1-.464 1.584c-.309.48-.789.87-1.44 1.168-.64.288-1.451.432-2.432.432ZM141.861 54v-1.792l-.08-.336v-3.056c0-.65-.192-1.152-.576-1.504-.374-.363-.939-.544-1.696-.544a4.36 4.36 0 0 0-1.472.256c-.48.16-.886.379-1.216.656l-.64-1.152c.437-.352.96-.619 1.568-.8a6.49 6.49 0 0 1 1.936-.288c1.162 0 2.058.283 2.688.848.629.565.944 1.43.944 2.592V54h-1.456Zm-2.784.096c-.63 0-1.184-.107-1.664-.32-.47-.213-.832-.507-1.088-.88a2.284 2.284 0 0 1-.384-1.296c0-.459.106-.875.32-1.248.224-.373.581-.672 1.072-.896.501-.224 1.173-.336 2.016-.336h2.688v1.104h-2.624c-.768 0-1.286.128-1.552.384-.267.256-.4.565-.4.928 0 .416.165.752.496 1.008.33.245.789.368 1.376.368.576 0 1.077-.128 1.504-.384.437-.256.752-.63.944-1.12l.304 1.056c-.203.501-.56.901-1.072 1.2-.512.288-1.158.432-1.936.432Zm9.15-.096-3.712-8.48h1.6l3.296 7.68h-.768l3.36-7.68h1.504L149.795 54h-1.568Zm10.255.096c-.907 0-1.707-.187-2.4-.56a4.103 4.103 0 0 1-1.6-1.536c-.373-.65-.56-1.397-.56-2.24 0-.843.181-1.59.544-2.24.373-.65.88-1.157 1.52-1.52.651-.373 1.381-.56 2.192-.56.821 0 1.547.181 2.176.544.629.363 1.12.875 1.472 1.536.363.65.544 1.413.544 2.288 0 .064-.005.139-.016.224 0 .085-.005.165-.016.24h-7.216v-1.104h6.416l-.624.384c.011-.544-.101-1.03-.336-1.456a2.498 2.498 0 0 0-.976-.992c-.405-.245-.88-.368-1.424-.368-.533 0-1.008.123-1.424.368-.416.235-.741.57-.976 1.008-.235.427-.352.917-.352 1.472v.256c0 .565.128 1.072.384 1.52a2.77 2.77 0 0 0 1.104 1.024c.469.245 1.008.368 1.616.368.501 0 .955-.085 1.36-.256.416-.17.779-.427 1.088-.768l.848.992c-.384.448-.864.79-1.44 1.024-.565.235-1.2.352-1.904.352Zm6.021-.096v-8.48h1.472v2.304l-.144-.576a2.605 2.605 0 0 1 1.184-1.344c.555-.31 1.237-.464 2.048-.464v1.488a1.162 1.162 0 0 0-.192-.016h-.16c-.821 0-1.472.245-1.952.736-.48.49-.72 1.2-.72 2.128V54h-1.536Z"/><path fill="#030522" d="M278.679 54.16c-1.536 0-2.741-.432-3.616-1.296-.864-.864-1.296-2.112-1.296-3.744V42.8h2.08v6.24c0 1.152.246 1.99.736 2.512.502.523 1.206.784 2.112.784.907 0 1.606-.261 2.096-.784.491-.523.736-1.36.736-2.512V42.8h2.048v6.32c0 1.632-.437 2.88-1.312 3.744-.864.864-2.058 1.296-3.584 1.296Zm9.665-2.8-.112-2.464 5.872-6.096h2.336l-4.88 5.184-1.152 1.264-2.064 2.112ZM286.488 54V42.8h2.08V54h-2.08Zm7.808 0-4.288-5.104 1.376-1.52L296.728 54h-2.432Z"/><g clip-path="url(#c)"><path fill="#fff" d="M305 30.5h25v35h-25z"/><path fill="#313EF7" d="M310.106 52.06c.159.055.327.083.496.08l5.194-.163.673-.803a.323.323 0 0 1 .231-.114l5.681-.227a.316.316 0 0 1 .309.202.318.318 0 0 1-.089.357l-.315.271 6.412-.261a.968.968 0 0 0 .574-1.717 6.459 6.459 0 0 0-4.947-1.396l-13.229 1.613a.317.317 0 0 1-.295-.129l-2.026-2.779a3.042 3.042 0 0 0-2.596-1.254l-.815.033 3.053 4.95a3.088 3.088 0 0 0 1.689 1.336Z"/><path fill="#313EF7" d="m312.481 57.376 7.259-6.236-4.628.184-4.52 5.392 1.889.66ZM320.9 48.408l-4.32-3.552-1.229.262 2.823 3.622 2.726-.332Z"/></g><path fill="#030522" d="M339.809 54V42.8h5.248c1.344 0 2.368.267 3.072.8.704.523 1.056 1.227 1.056 2.112 0 .597-.139 1.11-.416 1.536a2.855 2.855 0 0 1-1.12.976c-.459.224-.96.336-1.504.336l.288-.576c.629 0 1.194.117 1.696.352.501.224.896.555 1.184.992.298.437.448.981.448 1.632 0 .96-.368 1.707-1.104 2.24-.736.533-1.83.8-3.28.8h-5.568Zm2.08-1.632h3.36c.778 0 1.376-.128 1.792-.384.416-.256.624-.667.624-1.232 0-.555-.208-.96-.624-1.216-.416-.267-1.014-.4-1.792-.4h-3.52V47.52h3.104c.725 0 1.28-.128 1.664-.384.394-.256.592-.64.592-1.152 0-.523-.198-.912-.592-1.168-.384-.256-.939-.384-1.664-.384h-2.944v7.936ZM351.981 54V42.8h4.896c1.216 0 2.282.235 3.2.704.917.47 1.632 1.12 2.144 1.952.512.832.768 1.813.768 2.944 0 1.12-.256 2.101-.768 2.944-.512.832-1.227 1.483-2.144 1.952-.918.47-1.984.704-3.2.704h-4.896Zm2.08-1.76h2.72c.842 0 1.568-.16 2.176-.48a3.407 3.407 0 0 0 1.424-1.344c.341-.576.512-1.248.512-2.016 0-.779-.171-1.45-.512-2.016a3.407 3.407 0 0 0-1.424-1.344c-.608-.32-1.334-.48-2.176-.48h-2.72v7.68Z"/></g><g clip-path="url(#d)"><path fill="#030522" d="M39.632 108.192c-1.024 0-1.915-.213-2.672-.64-.747-.427-1.323-1.051-1.728-1.872-.405-.821-.608-1.835-.608-3.04 0-1.291.24-2.384.72-3.28.49-.896 1.163-1.579 2.016-2.048.864-.47 1.856-.704 2.976-.704.597 0 1.168.064 1.712.192s1.013.32 1.408.576l-.96 1.904a2.734 2.734 0 0 0-.992-.432 4.672 4.672 0 0 0-1.104-.128c-.97 0-1.739.293-2.304.88-.565.587-.848 1.456-.848 2.608v.64c.01.235.043.469.096.704l-.72-.672a3.22 3.22 0 0 1 .784-1.04c.32-.288.699-.501 1.136-.64a4.64 4.64 0 0 1 1.472-.224c.725 0 1.376.144 1.952.432a3.453 3.453 0 0 1 1.376 1.216c.352.523.528 1.136.528 1.84 0 .757-.192 1.419-.576 1.984-.373.555-.88.987-1.52 1.296-.63.299-1.344.448-2.144.448Zm-.144-1.936c.363 0 .683-.064.96-.192.288-.139.512-.336.672-.592.16-.256.24-.549.24-.88 0-.512-.176-.917-.528-1.216-.341-.309-.8-.464-1.376-.464-.384 0-.72.075-1.008.224a1.693 1.693 0 0 0-.688.592c-.16.245-.24.533-.24.864 0 .32.08.608.24.864.16.245.384.443.672.592.288.139.64.208 1.056.208Zm12.959-4.416h5.376v2.08h-5.376v-2.08Zm.192 6.16h-2.592V96.8h8.464v2.08h-5.872V108Zm7.45 0V96.128h2.497V108H60.09Zm4.813 0v-8.608h2.496V108h-2.496Zm1.248-9.808c-.459 0-.832-.133-1.12-.4a1.297 1.297 0 0 1-.432-.992c0-.395.144-.725.432-.992.288-.267.661-.4 1.12-.4.459 0 .832.128 1.12.384a1.2 1.2 0 0 1 .432.96c0 .416-.144.763-.432 1.04-.277.267-.65.4-1.12.4Zm7.612 13.04c-.81 0-1.594-.101-2.352-.304-.746-.192-1.37-.485-1.871-.88l.992-1.792c.362.299.82.533 1.375.704a5.44 5.44 0 0 0 1.664.272c.886 0 1.526-.197 1.92-.592.406-.395.609-.981.609-1.76v-1.296l.16-2.16-.032-2.176v-1.856h2.367v7.168c0 1.6-.415 2.779-1.247 3.536-.832.757-2.027 1.136-3.584 1.136Zm-.383-3.648c-.8 0-1.526-.171-2.177-.512a4.232 4.232 0 0 1-1.552-1.456c-.384-.629-.576-1.36-.576-2.192 0-.843.192-1.573.576-2.192a4.066 4.066 0 0 1 1.552-1.456c.651-.341 1.377-.512 2.177-.512.725 0 1.365.15 1.92.448.554.288.986.741 1.295 1.36.31.608.465 1.392.465 2.352 0 .949-.155 1.733-.465 2.352-.309.608-.74 1.061-1.295 1.36-.555.299-1.195.448-1.92.448Zm.495-2.048c.438 0 .827-.085 1.169-.256.34-.181.607-.432.8-.752.191-.32.287-.688.287-1.104 0-.427-.096-.795-.287-1.104a1.909 1.909 0 0 0-.8-.736 2.455 2.455 0 0 0-1.169-.272c-.437 0-.826.091-1.167.272a2.016 2.016 0 0 0-.816.736c-.193.309-.288.677-.288 1.104 0 .416.096.784.288 1.104.202.32.474.571.816.752.34.171.73.256 1.168.256Zm12.276-6.272c.682 0 1.29.139 1.824.416.544.267.97.683 1.28 1.248.309.555.464 1.269.464 2.144V108h-2.496v-4.544c0-.693-.155-1.205-.464-1.536-.299-.331-.726-.496-1.28-.496-.395 0-.752.085-1.072.256-.31.16-.555.411-.736.752-.171.341-.256.779-.256 1.312V108h-2.496V96.128h2.496v5.648l-.56-.72a3.187 3.187 0 0 1 1.328-1.328c.576-.31 1.232-.464 1.968-.464Zm9.35 8.864c-1.013 0-1.802-.256-2.368-.768-.565-.523-.848-1.296-.848-2.32v-7.552h2.496v7.52c0 .363.096.645.288.848.192.192.454.288.784.288.395 0 .73-.107 1.008-.32l.672 1.76c-.256.181-.565.32-.928.416-.352.085-.72.128-1.104.128Zm-4.544-6.624v-1.92h5.968v1.92h-5.968ZM105.961 108v-9.088h-3.584V96.8h9.76v2.112h-3.584V108h-2.592Zm7.394 0v-8.608h2.496V108h-2.496Zm1.248-9.808c-.459 0-.832-.133-1.12-.4a1.297 1.297 0 0 1-.432-.992c0-.395.144-.725.432-.992.288-.267.661-.4 1.12-.4.459 0 .832.128 1.12.384a1.2 1.2 0 0 1 .432.96c0 .416-.144.763-.432 1.04-.277.267-.651.4-1.12.4Zm7.725 9.936c-.928 0-1.755-.187-2.48-.56a4.376 4.376 0 0 1-1.712-1.584c-.406-.672-.608-1.435-.608-2.288 0-.864.202-1.627.608-2.288a4.26 4.26 0 0 1 1.712-1.568c.725-.384 1.552-.576 2.48-.576.906 0 1.696.192 2.368.576a3.42 3.42 0 0 1 1.488 1.616l-1.936 1.04c-.224-.405-.507-.704-.848-.896a2.13 2.13 0 0 0-1.088-.288c-.427 0-.811.096-1.152.288a2.132 2.132 0 0 0-.816.816c-.192.352-.288.779-.288 1.28s.096.928.288 1.28c.202.352.474.624.816.816.341.192.725.288 1.152.288.394 0 .757-.091 1.088-.272.341-.192.624-.496.848-.912l1.936 1.056a3.523 3.523 0 0 1-1.488 1.616c-.672.373-1.462.56-2.368.56Zm7.31-1.888.064-3.04 4.016-3.808h2.976l-3.856 3.92-1.296 1.056-1.904 1.872Zm-2.064 1.76V96.128h2.496V108h-2.496Zm6.416 0-2.912-3.616 1.568-1.936 4.368 5.552h-3.024Zm8.059.128c-.981 0-1.845-.192-2.592-.576-.736-.384-1.307-.907-1.712-1.568-.405-.672-.608-1.435-.608-2.288 0-.864.197-1.627.592-2.288a4.233 4.233 0 0 1 1.648-1.568c.693-.384 1.477-.576 2.352-.576.843 0 1.6.181 2.272.544a3.93 3.93 0 0 1 1.616 1.536c.395.661.592 1.456.592 2.384 0 .096-.005.208-.016.336l-.032.336h-6.992v-1.456h5.68l-.96.432c0-.448-.091-.837-.272-1.168a1.924 1.924 0 0 0-.752-.768 2.134 2.134 0 0 0-1.12-.288 2.22 2.22 0 0 0-1.136.288c-.32.181-.571.443-.752.784-.181.331-.272.725-.272 1.184v.384c0 .469.101.885.304 1.248.213.352.507.624.88.816.384.181.832.272 1.344.272.459 0 .859-.069 1.2-.208a2.93 2.93 0 0 0 .96-.624l1.328 1.44a3.946 3.946 0 0 1-1.488 1.04c-.597.235-1.285.352-2.064.352Zm9.342 0c-1.014 0-1.803-.256-2.368-.768-.566-.523-.848-1.296-.848-2.32v-7.552h2.496v7.52c0 .363.096.645.288.848.192.192.453.288.784.288.394 0 .73-.107 1.008-.32l.672 1.76c-.256.181-.566.32-.928.416-.352.085-.72.128-1.104.128Zm-4.544-6.624v-1.92h5.968v1.92h-5.968Zm10.873 6.624a8.727 8.727 0 0 1-2.128-.256c-.672-.181-1.205-.405-1.6-.672l.832-1.792a5.79 5.79 0 0 0 1.392.608 6.04 6.04 0 0 0 1.6.224c.576 0 .981-.069 1.216-.208.245-.139.368-.331.368-.576 0-.203-.096-.352-.288-.448-.181-.107-.427-.187-.736-.24a36.166 36.166 0 0 0-1.024-.16 14.219 14.219 0 0 1-1.104-.208 3.978 3.978 0 0 1-1.024-.416 2.162 2.162 0 0 1-.752-.736c-.181-.309-.272-.709-.272-1.2 0-.544.155-1.024.464-1.44.32-.416.779-.741 1.376-.976.597-.245 1.312-.368 2.144-.368.587 0 1.184.064 1.792.192.608.128 1.115.315 1.52.56l-.832 1.776a4.044 4.044 0 0 0-1.264-.496 5.397 5.397 0 0 0-1.216-.144c-.555 0-.96.075-1.216.224-.256.149-.384.341-.384.576 0 .213.091.373.272.48.192.107.443.192.752.256s.645.123 1.008.176a8.31 8.31 0 0 1 1.12.208 3.73 3.73 0 0 1 1.008.416c.309.171.56.411.752.72.192.299.288.693.288 1.184 0 .533-.16 1.008-.48 1.424-.32.405-.784.725-1.392.96-.597.235-1.328.352-2.192.352Z"/><path fill="#9CA3AF" d="M35.47 154v-9.8h3.822c.859 0 1.591.135 2.198.406s1.073.663 1.4 1.176c.327.513.49 1.125.49 1.834 0 .709-.163 1.321-.49 1.834-.327.504-.793.896-1.4 1.176-.607.271-1.34.406-2.198.406H36.24l.63-.658V154h-1.4Zm1.4-3.486-.63-.7h3.01c.896 0 1.573-.191 2.03-.574.467-.383.7-.924.7-1.624 0-.7-.233-1.241-.7-1.624-.457-.383-1.134-.574-2.03-.574h-3.01l.63-.7v5.796ZM49.778 154v-1.568l-.07-.294v-2.674c0-.569-.168-1.008-.504-1.316-.326-.317-.82-.476-1.484-.476-.438 0-.868.075-1.288.224-.42.14-.774.331-1.064.574l-.56-1.008c.383-.308.84-.541 1.372-.7a5.683 5.683 0 0 1 1.694-.252c1.018 0 1.802.247 2.352.742.551.495.826 1.251.826 2.268V154h-1.274Zm-2.436.084c-.55 0-1.036-.093-1.456-.28-.41-.187-.728-.443-.952-.77a1.998 1.998 0 0 1-.336-1.134c0-.401.094-.765.28-1.092.196-.327.51-.588.938-.784.44-.196 1.027-.294 1.764-.294h2.352v.966h-2.296c-.672 0-1.124.112-1.358.336-.233.224-.35.495-.35.812 0 .364.145.658.434.882.29.215.691.322 1.204.322.504 0 .943-.112 1.316-.336.383-.224.658-.551.826-.98l.266.924c-.177.439-.49.789-.938 1.05-.448.252-1.012.378-1.694.378Zm8.326 0a6.106 6.106 0 0 1-1.764-.252c-.551-.168-.985-.373-1.302-.616l.56-1.064c.317.215.709.397 1.176.546.466.149.942.224 1.428.224.625 0 1.073-.089 1.344-.266.28-.177.42-.425.42-.742a.653.653 0 0 0-.252-.546 1.712 1.712 0 0 0-.672-.294 9.634 9.634 0 0 0-.91-.168 18.85 18.85 0 0 1-1.008-.196 4.5 4.5 0 0 1-.924-.336 1.82 1.82 0 0 1-.672-.602c-.168-.261-.252-.607-.252-1.036 0-.448.126-.84.378-1.176.252-.336.606-.593 1.064-.77.466-.187 1.017-.28 1.652-.28.485 0 .975.061 1.47.182.504.112.914.275 1.232.49l-.574 1.064a3.171 3.171 0 0 0-1.05-.462 4.842 4.842 0 0 0-1.092-.126c-.588 0-1.027.098-1.316.294-.29.187-.434.429-.434.728 0 .252.084.448.252.588.177.131.401.233.672.308.28.075.588.14.924.196.336.047.672.112 1.008.196.336.075.639.182.91.322.28.14.504.336.672.588.177.252.266.588.266 1.008 0 .448-.131.835-.392 1.162-.262.327-.63.583-1.106.77-.476.177-1.046.266-1.708.266Zm7.013 0a6.106 6.106 0 0 1-1.764-.252c-.55-.168-.984-.373-1.302-.616l.56-1.064c.318.215.71.397 1.176.546.467.149.943.224 1.428.224.626 0 1.074-.089 1.344-.266.28-.177.42-.425.42-.742a.653.653 0 0 0-.252-.546 1.712 1.712 0 0 0-.672-.294 9.64 9.64 0 0 0-.91-.168 18.85 18.85 0 0 1-1.008-.196 4.5 4.5 0 0 1-.924-.336 1.82 1.82 0 0 1-.672-.602c-.168-.261-.252-.607-.252-1.036 0-.448.126-.84.378-1.176.252-.336.607-.593 1.064-.77.467-.187 1.018-.28 1.652-.28.486 0 .976.061 1.47.182.504.112.915.275 1.232.49l-.574 1.064a3.171 3.171 0 0 0-1.05-.462 4.842 4.842 0 0 0-1.092-.126c-.588 0-1.026.098-1.316.294-.289.187-.434.429-.434.728 0 .252.084.448.252.588.178.131.402.233.672.308.28.075.588.14.924.196.336.047.672.112 1.008.196.336.075.64.182.91.322.28.14.504.336.672.588.178.252.266.588.266 1.008 0 .448-.13.835-.392 1.162-.261.327-.63.583-1.106.77-.476.177-1.045.266-1.708.266Zm8.19 0c-.793 0-1.493-.163-2.1-.49a3.597 3.597 0 0 1-1.4-1.344c-.327-.569-.49-1.223-.49-1.96 0-.737.159-1.391.476-1.96a3.5 3.5 0 0 1 1.33-1.33c.57-.327 1.209-.49 1.918-.49.719 0 1.353.159 1.904.476.55.317.98.765 1.288 1.344.317.569.476 1.237.476 2.002 0 .056-.005.121-.014.196 0 .075-.005.145-.014.21h-6.314v-.966h5.614l-.546.336a2.495 2.495 0 0 0-.294-1.274 2.184 2.184 0 0 0-.854-.868c-.355-.215-.77-.322-1.246-.322-.467 0-.882.107-1.246.322a2.157 2.157 0 0 0-.854.882 2.628 2.628 0 0 0-.308 1.288v.224c0 .495.112.938.336 1.33.233.383.555.681.966.896.41.215.882.322 1.414.322.439 0 .835-.075 1.19-.224a2.6 2.6 0 0 0 .952-.672l.742.868a3.237 3.237 0 0 1-1.26.896 4.315 4.315 0 0 1-1.666.308Zm9.23-7.574c.607 0 1.139.117 1.596.35a2.5 2.5 0 0 1 1.092 1.064c.262.476.392 1.078.392 1.806V154h-1.344v-4.116c0-.719-.177-1.26-.532-1.624-.345-.364-.835-.546-1.47-.546-.476 0-.891.093-1.246.28-.354.187-.63.462-.826.826-.186.364-.28.817-.28 1.358V154H76.14v-7.42h1.288v2.002l-.21-.532a2.58 2.58 0 0 1 1.12-1.134c.504-.271 1.092-.406 1.764-.406Zm8.816 10.29a6.79 6.79 0 0 1-1.989-.294c-.634-.187-1.152-.457-1.553-.812l.644-1.036c.345.299.77.532 1.273.7a4.74 4.74 0 0 0 1.582.266c.878 0 1.522-.205 1.933-.616.41-.411.615-1.036.615-1.876v-1.568l.14-1.47-.07-1.484v-2.03h1.274v6.412c0 1.307-.326 2.268-.98 2.884-.653.616-1.61.924-2.87.924Zm-.168-3.108c-.72 0-1.363-.149-1.932-.448a3.598 3.598 0 0 1-1.344-1.274c-.327-.541-.49-1.167-.49-1.876 0-.719.163-1.344.49-1.876a3.493 3.493 0 0 1 1.344-1.26c.569-.299 1.213-.448 1.932-.448.634 0 1.213.131 1.736.392.522.252.938.644 1.246 1.176.317.532.476 1.204.476 2.016 0 .803-.16 1.47-.476 2.002a3.033 3.033 0 0 1-1.246 1.204 3.831 3.831 0 0 1-1.736.392Zm.154-1.176c.494 0 .933-.103 1.316-.308.382-.205.68-.49.896-.854.224-.364.336-.784.336-1.26s-.112-.896-.336-1.26a2.161 2.161 0 0 0-.896-.84 2.743 2.743 0 0 0-1.316-.308c-.495 0-.939.103-1.33.308a2.256 2.256 0 0 0-.91.84 2.434 2.434 0 0 0-.322 1.26c0 .476.107.896.322 1.26.224.364.527.649.91.854.392.205.835.308 1.33.308Zm9.735 1.568c-.793 0-1.493-.163-2.1-.49a3.598 3.598 0 0 1-1.4-1.344c-.326-.569-.49-1.223-.49-1.96 0-.737.16-1.391.477-1.96a3.5 3.5 0 0 1 1.33-1.33 3.781 3.781 0 0 1 1.918-.49c.718 0 1.353.159 1.904.476.55.317.98.765 1.288 1.344.317.569.476 1.237.476 2.002 0 .056-.005.121-.014.196 0 .075-.005.145-.014.21h-6.315v-.966h5.615l-.546.336a2.5 2.5 0 0 0-.294-1.274 2.189 2.189 0 0 0-.855-.868c-.354-.215-.77-.322-1.245-.322-.467 0-.883.107-1.247.322a2.157 2.157 0 0 0-.854.882 2.63 2.63 0 0 0-.308 1.288v.224c0 .495.112.938.337 1.33.233.383.555.681.965.896.411.215.882.322 1.414.322.44 0 .836-.075 1.19-.224a2.6 2.6 0 0 0 .953-.672l.742.868a3.237 3.237 0 0 1-1.26.896 4.319 4.319 0 0 1-1.667.308Zm5.269-.084v-7.42h1.288v2.016l-.126-.504c.205-.513.55-.905 1.036-1.176.485-.271 1.082-.406 1.792-.406v1.302a1.058 1.058 0 0 0-.168-.014h-.14c-.719 0-1.288.215-1.708.644-.42.429-.63 1.05-.63 1.862V154h-1.344Z"/><path fill="#030522" d="M35.504 182v-11.2h4.608c.992 0 1.84.16 2.544.48.715.32 1.264.779 1.648 1.376.384.597.576 1.307.576 2.128 0 .821-.192 1.531-.576 2.128-.384.587-.933 1.04-1.648 1.36-.704.309-1.552.464-2.544.464h-3.456l.928-.944V182h-2.08Zm7.328 0L40 177.936h2.224L45.072 182h-2.24Zm-5.248-3.984-.928-.992h3.36c.917 0 1.605-.197 2.064-.592.47-.395.704-.944.704-1.648 0-.715-.235-1.264-.704-1.648-.459-.384-1.147-.576-2.064-.576h-3.36l.928-1.024v6.48ZM52.201 182v-1.728l-.112-.368v-3.024c0-.587-.176-1.04-.528-1.36-.352-.331-.885-.496-1.6-.496-.48 0-.955.075-1.424.224a3.477 3.477 0 0 0-1.168.624l-.784-1.456a4.65 4.65 0 0 1 1.632-.784 7.255 7.255 0 0 1 1.984-.272c1.237 0 2.192.299 2.864.896.683.587 1.024 1.499 1.024 2.736V182h-1.888Zm-2.688.112c-.64 0-1.2-.107-1.68-.32-.48-.224-.853-.528-1.12-.912a2.388 2.388 0 0 1-.384-1.328c0-.48.112-.912.336-1.296.235-.384.613-.688 1.136-.912.523-.224 1.216-.336 2.08-.336h2.48v1.328h-2.336c-.683 0-1.141.112-1.376.336-.235.213-.352.48-.352.8 0 .363.144.651.432.864.288.213.688.32 1.2.32.49 0 .928-.112 1.312-.336.395-.224.677-.555.848-.992l.336 1.2c-.192.501-.539.891-1.04 1.168-.49.277-1.115.416-1.872.416Zm6.263 3.104c-.374 0-.726-.043-1.056-.128a2.279 2.279 0 0 1-.864-.368l.576-1.488c.31.224.698.336 1.168.336.362 0 .645-.117.848-.352.202-.224.304-.56.304-1.008v-8.752h2v8.704c0 .939-.262 1.68-.784 2.224-.512.555-1.243.832-2.192.832Zm1.968-13.168c-.374 0-.683-.117-.928-.352a1.156 1.156 0 0 1-.352-.848c0-.341.117-.624.352-.848.245-.235.554-.352.928-.352.373 0 .677.112.912.336.245.213.368.485.368.816 0 .352-.118.651-.352.896-.235.235-.544.352-.928.352Zm7.246 10.064c-.725 0-1.365-.133-1.92-.4a2.982 2.982 0 0 1-1.295-1.248c-.31-.565-.465-1.275-.465-2.128v-4.88h2v4.608c0 .768.171 1.344.512 1.728.352.373.849.56 1.489.56.469 0 .874-.096 1.215-.288.353-.192.624-.48.817-.864.202-.384.303-.859.303-1.424v-4.32h2V182h-1.903v-2.304l.336.704c-.288.555-.71.981-1.264 1.28a3.899 3.899 0 0 1-1.825.432ZM76.88 182v-11.2h1.712l4.896 8.176h-.896l4.816-8.176h1.712l.016 11.2h-1.968l-.016-8.112h.416l-4.096 6.832h-.928l-4.16-6.832h.48V182h-1.984Zm18.705.112c-.725 0-1.365-.133-1.92-.4a2.982 2.982 0 0 1-1.296-1.248c-.31-.565-.464-1.275-.464-2.128v-4.88h2v4.608c0 .768.17 1.344.512 1.728.352.373.848.56 1.488.56.47 0 .875-.096 1.216-.288.352-.192.624-.48.816-.864.203-.384.304-.859.304-1.424v-4.32h2V182h-1.904v-2.304l.336.704c-.288.555-.71.981-1.264 1.28a3.899 3.899 0 0 1-1.824.432Zm7.275-.112v-11.872h2V182h-2Zm4.625 0v-11.872h2V182h-2Zm9.889 0v-1.728l-.112-.368v-3.024c0-.587-.176-1.04-.528-1.36-.352-.331-.885-.496-1.6-.496-.48 0-.955.075-1.424.224a3.474 3.474 0 0 0-1.168.624l-.784-1.456a4.655 4.655 0 0 1 1.632-.784 7.254 7.254 0 0 1 1.984-.272c1.237 0 2.192.299 2.864.896.683.587 1.024 1.499 1.024 2.736V182h-1.888Zm-2.688.112c-.64 0-1.2-.107-1.68-.32-.48-.224-.853-.528-1.12-.912a2.388 2.388 0 0 1-.384-1.328c0-.48.112-.912.336-1.296.235-.384.613-.688 1.136-.912.523-.224 1.216-.336 2.08-.336h2.48v1.328h-2.336c-.683 0-1.141.112-1.376.336-.235.213-.352.48-.352.8 0 .363.144.651.432.864.288.213.688.32 1.2.32.491 0 .928-.112 1.312-.336.395-.224.677-.555.848-.992l.336 1.2c-.192.501-.539.891-1.04 1.168-.491.277-1.115.416-1.872.416Zm11.991-8.752c.682 0 1.29.133 1.824.4.544.267.97.677 1.28 1.232.309.544.464 1.248.464 2.112V182h-2v-4.64c0-.757-.182-1.323-.544-1.696-.352-.373-.848-.56-1.488-.56-.47 0-.886.096-1.248.288-.363.192-.646.48-.848.864-.192.373-.288.848-.288 1.424V182h-2v-11.872h2v5.632l-.432-.704c.298-.544.73-.96 1.296-1.248.576-.299 1.237-.448 1.984-.448Z"/><path fill="#9CA3AF" d="M208.47 154v-9.8h4.13c1.045 0 1.965.205 2.758.616a4.498 4.498 0 0 1 1.862 1.722c.448.737.672 1.591.672 2.562 0 .971-.224 1.825-.672 2.562a4.498 4.498 0 0 1-1.862 1.722c-.793.411-1.713.616-2.758.616h-4.13Zm1.4-1.218h2.646c.812 0 1.512-.154 2.1-.462a3.366 3.366 0 0 0 1.386-1.288c.327-.56.49-1.204.49-1.932 0-.737-.163-1.381-.49-1.932a3.366 3.366 0 0 0-1.386-1.288c-.588-.308-1.288-.462-2.1-.462h-2.646v7.364ZM224.446 154v-1.568l-.07-.294v-2.674c0-.569-.168-1.008-.504-1.316-.326-.317-.821-.476-1.484-.476a3.83 3.83 0 0 0-1.288.224 3.22 3.22 0 0 0-1.064.574l-.56-1.008c.383-.308.84-.541 1.372-.7a5.685 5.685 0 0 1 1.694-.252c1.018 0 1.802.247 2.352.742.551.495.826 1.251.826 2.268V154h-1.274Zm-2.436.084c-.55 0-1.036-.093-1.456-.28-.41-.187-.728-.443-.952-.77a1.998 1.998 0 0 1-.336-1.134c0-.401.094-.765.28-1.092.196-.327.509-.588.938-.784.439-.196 1.027-.294 1.764-.294h2.352v.966h-2.296c-.672 0-1.124.112-1.358.336-.233.224-.35.495-.35.812 0 .364.145.658.434.882.29.215.691.322 1.204.322.504 0 .943-.112 1.316-.336.383-.224.658-.551.826-.98l.266.924c-.177.439-.49.789-.938 1.05-.448.252-1.012.378-1.694.378Zm8.746 0c-.747 0-1.326-.201-1.736-.602-.411-.401-.616-.975-.616-1.722v-6.804h1.344v6.748c0 .401.098.709.294.924.205.215.494.322.868.322.42 0 .77-.117 1.05-.35l.42.966a1.961 1.961 0 0 1-.742.392c-.28.084-.574.126-.882.126Zm-3.612-6.398v-1.106h4.732v1.106h-4.732Zm9.918 6.398c-.793 0-1.493-.163-2.1-.49a3.6 3.6 0 0 1-1.4-1.344c-.326-.569-.49-1.223-.49-1.96 0-.737.159-1.391.476-1.96a3.503 3.503 0 0 1 1.33-1.33 3.784 3.784 0 0 1 1.918-.49c.719 0 1.354.159 1.904.476.551.317.98.765 1.288 1.344.318.569.476 1.237.476 2.002 0 .056-.004.121-.014.196 0 .075-.004.145-.014.21h-6.314v-.966h5.614l-.546.336a2.48 2.48 0 0 0-.294-1.274 2.181 2.181 0 0 0-.854-.868c-.354-.215-.77-.322-1.246-.322-.466 0-.882.107-1.246.322a2.161 2.161 0 0 0-.854.882 2.633 2.633 0 0 0-.308 1.288v.224c0 .495.112.938.336 1.33.234.383.556.681.966.896.411.215.882.322 1.414.322.439 0 .836-.075 1.19-.224.364-.149.682-.373.952-.672l.742.868a3.237 3.237 0 0 1-1.26.896 4.312 4.312 0 0 1-1.666.308Z"/><path fill="#030522" d="M207.56 182v-1.392l4.448-4.224c.373-.352.651-.661.832-.928.181-.267.299-.512.352-.736.064-.235.096-.453.096-.656 0-.512-.176-.907-.528-1.184-.352-.288-.869-.432-1.552-.432a3.74 3.74 0 0 0-1.488.288 3.008 3.008 0 0 0-1.136.88l-1.456-1.12c.437-.587 1.024-1.04 1.76-1.36.747-.331 1.579-.496 2.496-.496.811 0 1.515.133 2.112.4.608.256 1.072.624 1.392 1.104.331.48.496 1.051.496 1.712 0 .363-.048.725-.144 1.088-.096.352-.277.725-.544 1.12-.267.395-.656.837-1.168 1.328l-3.824 3.632-.432-.784h6.544V182h-8.256Zm14.129.16a4.422 4.422 0 0 1-2.4-.672c-.704-.448-1.259-1.099-1.664-1.952-.406-.864-.608-1.909-.608-3.136s.202-2.267.608-3.12c.405-.864.96-1.52 1.664-1.968a4.422 4.422 0 0 1 2.4-.672c.896 0 1.696.224 2.4.672.704.448 1.258 1.104 1.664 1.968.416.853.624 1.893.624 3.12s-.208 2.272-.624 3.136c-.406.853-.96 1.504-1.664 1.952-.704.448-1.504.672-2.4.672Zm0-1.808c.522 0 .976-.139 1.36-.416.384-.288.682-.725.896-1.312.224-.587.336-1.328.336-2.224 0-.907-.112-1.648-.336-2.224-.214-.587-.512-1.019-.896-1.296-.384-.288-.838-.432-1.36-.432-.502 0-.95.144-1.344.432-.384.277-.688.709-.912 1.296-.214.576-.32 1.317-.32 2.224 0 .896.106 1.637.32 2.224.224.587.528 1.024.912 1.312a2.28 2.28 0 0 0 1.344.416ZM233.004 182v-11.2h1.712l7.024 8.624h-.848V170.8h2.064V182h-1.712l-7.024-8.624h.848V182h-2.064Zm16.601.112c-.875 0-1.653-.187-2.336-.56a4.307 4.307 0 0 1-1.616-1.568c-.395-.661-.592-1.413-.592-2.256 0-.853.197-1.605.592-2.256a4.186 4.186 0 0 1 1.616-1.552c.683-.373 1.461-.56 2.336-.56.885 0 1.669.187 2.352.56a4.076 4.076 0 0 1 1.616 1.536c.395.651.592 1.408.592 2.272 0 .843-.197 1.595-.592 2.256a4.16 4.16 0 0 1-1.616 1.568c-.683.373-1.467.56-2.352.56Zm0-1.712c.491 0 .928-.107 1.312-.32.384-.213.683-.523.896-.928.224-.405.336-.88.336-1.424 0-.555-.112-1.029-.336-1.424a2.211 2.211 0 0 0-.896-.928 2.627 2.627 0 0 0-1.296-.32c-.491 0-.928.107-1.312.32a2.35 2.35 0 0 0-.896.928c-.224.395-.336.869-.336 1.424 0 .544.112 1.019.336 1.424.224.405.523.715.896.928.384.213.816.32 1.296.32Zm8.51 1.6-3.664-8.544h2.08l3.152 7.536h-1.024l3.264-7.536h1.92L260.179 182h-2.064Zm10.648 0v-1.392l4.448-4.224c.373-.352.651-.661.832-.928.181-.267.299-.512.352-.736.064-.235.096-.453.096-.656 0-.512-.176-.907-.528-1.184-.352-.288-.869-.432-1.552-.432a3.74 3.74 0 0 0-1.488.288 3.008 3.008 0 0 0-1.136.88l-1.456-1.12c.437-.587 1.024-1.04 1.76-1.36.747-.331 1.579-.496 2.496-.496.811 0 1.515.133 2.112.4.608.256 1.072.624 1.392 1.104.331.48.496 1.051.496 1.712 0 .363-.048.725-.144 1.088-.096.352-.277.725-.544 1.12-.267.395-.656.837-1.168 1.328l-3.824 3.632-.432-.784h6.544V182h-8.256Zm14.129.16a4.422 4.422 0 0 1-2.4-.672c-.704-.448-1.259-1.099-1.664-1.952-.406-.864-.608-1.909-.608-3.136s.202-2.267.608-3.12c.405-.864.96-1.52 1.664-1.968a4.422 4.422 0 0 1 2.4-.672c.896 0 1.696.224 2.4.672.704.448 1.258 1.104 1.664 1.968.416.853.624 1.893.624 3.12s-.208 2.272-.624 3.136c-.406.853-.96 1.504-1.664 1.952-.704.448-1.504.672-2.4.672Zm0-1.808c.522 0 .976-.139 1.36-.416.384-.288.682-.725.896-1.312.224-.587.336-1.328.336-2.224 0-.907-.112-1.648-.336-2.224-.214-.587-.512-1.019-.896-1.296-.384-.288-.838-.432-1.36-.432-.502 0-.95.144-1.344.432-.384.277-.688.709-.912 1.296-.214.576-.32 1.317-.32 2.224 0 .896.106 1.637.32 2.224.224.587.528 1.024.912 1.312a2.28 2.28 0 0 0 1.344.416Zm5.934 1.648v-1.392l4.448-4.224c.373-.352.65-.661.832-.928.181-.267.298-.512.352-.736.064-.235.096-.453.096-.656 0-.512-.176-.907-.528-1.184-.352-.288-.87-.432-1.552-.432a3.74 3.74 0 0 0-1.488.288 3 3 0 0 0-1.136.88l-1.456-1.12c.437-.587 1.024-1.04 1.76-1.36.746-.331 1.578-.496 2.496-.496.81 0 1.514.133 2.112.4.608.256 1.072.624 1.392 1.104.33.48.496 1.051.496 1.712 0 .363-.048.725-.144 1.088-.096.352-.278.725-.544 1.12-.267.395-.656.837-1.168 1.328l-3.824 3.632-.432-.784h6.544V182h-8.256Zm9.312 0v-1.392l4.448-4.224c.373-.352.651-.661.832-.928.181-.267.299-.512.352-.736.064-.235.096-.453.096-.656 0-.512-.176-.907-.528-1.184-.352-.288-.869-.432-1.552-.432a3.74 3.74 0 0 0-1.488.288 3.008 3.008 0 0 0-1.136.88l-1.456-1.12c.437-.587 1.024-1.04 1.76-1.36.747-.331 1.579-.496 2.496-.496.811 0 1.515.133 2.112.4.608.256 1.072.624 1.392 1.104.331.48.496 1.051.496 1.712 0 .363-.048.725-.144 1.088-.096.352-.277.725-.544 1.12-.267.395-.656.837-1.168 1.328l-3.824 3.632-.432-.784h6.544V182h-8.256Z"/><path fill="#9CA3AF" d="M36.73 214.834h5.054v1.204H36.73v-1.204Zm.14 5.166h-1.4v-9.8h6.916v1.218H36.87V220Zm7.29 0v-10.388h1.345V220H44.16Zm3.91 0v-7.42h1.345V220H48.07Zm.673-8.848a.92.92 0 0 1-.658-.252.837.837 0 0 1-.252-.616c0-.252.084-.462.252-.63a.92.92 0 0 1 .658-.252c.261 0 .476.084.644.252a.773.773 0 0 1 .266.602.902.902 0 0 1-.252.644c-.168.168-.388.252-.658.252Zm6.486 11.648a6.79 6.79 0 0 1-1.988-.294c-.635-.187-1.153-.457-1.554-.812l.644-1.036c.345.299.77.532 1.274.7a4.74 4.74 0 0 0 1.582.266c.877 0 1.521-.205 1.932-.616.41-.411.616-1.036.616-1.876v-1.568l.14-1.47-.07-1.484v-2.03h1.274v6.412c0 1.307-.327 2.268-.98 2.884-.653.616-1.61.924-2.87.924Zm-.168-3.108c-.719 0-1.363-.149-1.932-.448a3.598 3.598 0 0 1-1.344-1.274c-.327-.541-.49-1.167-.49-1.876 0-.719.163-1.344.49-1.876a3.493 3.493 0 0 1 1.344-1.26c.57-.299 1.213-.448 1.932-.448.635 0 1.213.131 1.736.392.523.252.938.644 1.246 1.176.317.532.476 1.204.476 2.016 0 .803-.159 1.47-.476 2.002a3.033 3.033 0 0 1-1.246 1.204 3.831 3.831 0 0 1-1.736.392Zm.154-1.176c.495 0 .933-.103 1.316-.308.383-.205.681-.49.896-.854.224-.364.336-.784.336-1.26s-.112-.896-.336-1.26a2.161 2.161 0 0 0-.896-.84 2.743 2.743 0 0 0-1.316-.308c-.495 0-.938.103-1.33.308a2.256 2.256 0 0 0-.91.84 2.434 2.434 0 0 0-.322 1.26c0 .476.107.896.322 1.26.224.364.527.649.91.854.392.205.835.308 1.33.308Zm10.394-6.006c.607 0 1.139.117 1.596.35a2.5 2.5 0 0 1 1.092 1.064c.261.476.392 1.078.392 1.806V220h-1.344v-4.116c0-.719-.177-1.26-.532-1.624-.345-.364-.835-.546-1.47-.546-.476 0-.891.093-1.246.28-.355.187-.63.462-.826.826-.187.364-.28.817-.28 1.358V220h-1.344v-10.388h1.344v4.97l-.266-.532a2.58 2.58 0 0 1 1.12-1.134c.504-.271 1.092-.406 1.764-.406Zm8.115 7.574c-.746 0-1.325-.201-1.736-.602-.41-.401-.616-.975-.616-1.722v-6.804h1.344v6.748c0 .401.098.709.294.924.206.215.495.322.868.322.42 0 .77-.117 1.05-.35l.42.966a1.953 1.953 0 0 1-.742.392c-.28.084-.574.126-.882.126Zm-3.612-6.398v-1.106h4.732v1.106h-4.732Z"/><path fill="#030522" d="m40.352 248 1.376-11.2h1.456L41.808 248h-1.456Zm-5.984-2.72v-1.456H44.48v1.456H34.368Zm1.824 2.72 1.392-11.2h1.456L37.648 248h-1.456Zm-1.28-7.024v-1.456h10.08l.016 1.456H34.912Zm14.879 7.184c-.79 0-1.563-.112-2.32-.336-.747-.235-1.376-.555-1.888-.96l.88-1.616c.405.331.896.597 1.472.8a5.539 5.539 0 0 0 1.824.304c.736 0 1.312-.155 1.728-.464.427-.309.64-.725.64-1.248 0-.352-.09-.661-.272-.928-.17-.267-.48-.469-.928-.608-.437-.139-1.04-.208-1.808-.208h-2.704l.576-6.096h6.576v1.744h-5.808l1.088-.992-.432 4.56-1.088-.976h2.256c1.11 0 2 .149 2.672.448.683.288 1.179.693 1.488 1.216.32.512.48 1.099.48 1.76a3.47 3.47 0 0 1-.48 1.792c-.32.544-.81.981-1.472 1.312-.65.331-1.477.496-2.48.496Zm5.472-2.704v-1.44l5.52-7.216h2.224l-5.44 7.216-1.04-.32h8.88v1.76H55.263ZM61.407 248v-2.544l.064-1.76v-2.256h1.952V248h-2.016Zm9.527.16c-.928 0-1.733-.139-2.416-.416-.682-.277-1.21-.667-1.584-1.168-.373-.512-.56-1.109-.56-1.792s.182-1.259.544-1.728c.363-.469.886-.827 1.568-1.072.683-.245 1.499-.368 2.448-.368.95 0 1.766.123 2.448.368.694.245 1.222.608 1.584 1.088.374.469.56 1.04.56 1.712 0 .683-.192 1.28-.576 1.792-.373.501-.906.891-1.6 1.168-.682.277-1.488.416-2.416.416Zm0-1.632c.768 0 1.376-.16 1.824-.48.448-.32.672-.763.672-1.328 0-.555-.224-.992-.672-1.312-.448-.32-1.056-.48-1.824-.48s-1.37.16-1.808.48c-.437.32-.656.757-.656 1.312 0 .565.219 1.008.656 1.328.438.32 1.04.48 1.808.48Zm0-3.824c-.864 0-1.605-.112-2.224-.336-.618-.235-1.098-.571-1.44-1.008-.33-.448-.496-.981-.496-1.6 0-.64.171-1.189.512-1.648.352-.469.843-.832 1.472-1.088.63-.256 1.355-.384 2.176-.384.832 0 1.563.128 2.192.384.63.256 1.12.619 1.472 1.088.352.459.528 1.008.528 1.648 0 .619-.17 1.152-.512 1.6-.33.437-.81.773-1.44 1.008-.629.224-1.376.336-2.24.336Zm0-1.28c.662 0 1.184-.139 1.568-.416.384-.288.576-.672.576-1.152 0-.501-.197-.891-.592-1.168-.394-.277-.912-.416-1.552-.416s-1.152.139-1.536.416c-.384.277-.576.667-.576 1.168 0 .48.187.864.56 1.152.384.277.902.416 1.552.416Zm10.79 6.736c-1.014 0-1.883-.213-2.608-.64-.725-.437-1.28-1.067-1.664-1.888-.384-.821-.576-1.835-.576-3.04 0-1.28.23-2.363.688-3.248.47-.885 1.115-1.557 1.936-2.016.832-.459 1.787-.688 2.864-.688.565 0 1.104.059 1.616.176.522.117.965.299 1.328.544l-.768 1.568a2.886 2.886 0 0 0-1.008-.416 4.759 4.759 0 0 0-1.12-.128c-1.056 0-1.894.325-2.512.976-.619.651-.928 1.611-.928 2.88 0 .203.005.443.016.72.01.267.048.539.112.816l-.64-.704c.192-.437.453-.8.784-1.088a3.384 3.384 0 0 1 1.2-.672c.47-.149.976-.224 1.52-.224.736 0 1.392.144 1.968.432a3.335 3.335 0 0 1 1.376 1.2c.341.512.512 1.115.512 1.808 0 .736-.181 1.376-.544 1.92a3.624 3.624 0 0 1-1.472 1.264c-.619.299-1.312.448-2.08.448Zm-.112-1.632c.427 0 .805-.075 1.136-.224.33-.16.587-.384.768-.672.192-.288.288-.624.288-1.008 0-.587-.203-1.051-.608-1.392-.406-.341-.95-.512-1.632-.512a2.61 2.61 0 0 0-1.184.256 2.05 2.05 0 0 0-.8.672 1.748 1.748 0 0 0-.288.992c0 .341.09.656.272.944.181.288.443.517.784.688.352.171.773.256 1.264.256Zm10.143 1.632c-1.013 0-1.882-.213-2.608-.64-.725-.437-1.28-1.067-1.664-1.888-.384-.821-.576-1.835-.576-3.04 0-1.28.23-2.363.688-3.248.47-.885 1.115-1.557 1.936-2.016.832-.459 1.787-.688 2.864-.688.566 0 1.104.059 1.616.176.523.117.966.299 1.328.544l-.768 1.568a2.884 2.884 0 0 0-1.008-.416 4.758 4.758 0 0 0-1.12-.128c-1.056 0-1.893.325-2.512.976-.618.651-.928 1.611-.928 2.88 0 .203.005.443.016.72.01.267.048.539.112.816l-.64-.704c.192-.437.454-.8.784-1.088a3.386 3.386 0 0 1 1.2-.672c.47-.149.976-.224 1.52-.224.736 0 1.392.144 1.968.432a3.335 3.335 0 0 1 1.376 1.2c.341.512.512 1.115.512 1.808 0 .736-.181 1.376-.544 1.92a3.623 3.623 0 0 1-1.472 1.264c-.618.299-1.312.448-2.08.448Zm-.112-1.632c.427 0 .805-.075 1.136-.224.33-.16.587-.384.768-.672.192-.288.288-.624.288-1.008 0-.587-.203-1.051-.608-1.392-.405-.341-.95-.512-1.632-.512a2.61 2.61 0 0 0-1.184.256c-.33.16-.597.384-.8.672a1.748 1.748 0 0 0-.288.992c0 .341.09.656.272.944.181.288.443.517.784.688.352.171.773.256 1.264.256ZM96.794 248v-1.392l4.448-4.224c.374-.352.651-.661.832-.928a2.27 2.27 0 0 0 .352-.736c.064-.235.096-.453.096-.656 0-.512-.176-.907-.528-1.184-.352-.288-.869-.432-1.552-.432-.544 0-1.04.096-1.488.288a3.005 3.005 0 0 0-1.136.88l-1.456-1.12c.438-.587 1.024-1.04 1.76-1.36.747-.331 1.579-.496 2.496-.496.811 0 1.515.133 2.112.4.608.256 1.072.624 1.392 1.104.331.48.496 1.051.496 1.712 0 .363-.048.725-.144 1.088-.096.352-.277.725-.544 1.12-.266.395-.656.837-1.168 1.328l-3.824 3.632-.432-.784h6.544V248h-8.256Zm14.305.16c-1.013 0-1.883-.213-2.608-.64-.725-.437-1.28-1.067-1.664-1.888-.384-.821-.576-1.835-.576-3.04 0-1.28.229-2.363.688-3.248.469-.885 1.115-1.557 1.936-2.016.832-.459 1.787-.688 2.864-.688.565 0 1.104.059 1.616.176.523.117.965.299 1.328.544l-.768 1.568a2.88 2.88 0 0 0-1.008-.416 4.756 4.756 0 0 0-1.12-.128c-1.056 0-1.893.325-2.512.976s-.928 1.611-.928 2.88c0 .203.005.443.016.72.011.267.048.539.112.816l-.64-.704c.192-.437.453-.8.784-1.088a3.379 3.379 0 0 1 1.2-.672 4.996 4.996 0 0 1 1.52-.224c.736 0 1.392.144 1.968.432a3.333 3.333 0 0 1 1.376 1.2c.341.512.512 1.115.512 1.808 0 .736-.181 1.376-.544 1.92a3.624 3.624 0 0 1-1.472 1.264c-.619.299-1.312.448-2.08.448Zm-.112-1.632c.427 0 .805-.075 1.136-.224.331-.16.587-.384.768-.672.192-.288.288-.624.288-1.008 0-.587-.203-1.051-.608-1.392-.405-.341-.949-.512-1.632-.512-.448 0-.843.085-1.184.256-.331.16-.597.384-.8.672a1.748 1.748 0 0 0-.288.992c0 .341.091.656.272.944.181.288.443.517.784.688.352.171.773.256 1.264.256Zm10.143 1.632c-1.013 0-1.883-.213-2.608-.64-.725-.437-1.28-1.067-1.664-1.888-.384-.821-.576-1.835-.576-3.04 0-1.28.229-2.363.688-3.248.469-.885 1.115-1.557 1.936-2.016.832-.459 1.787-.688 2.864-.688.565 0 1.104.059 1.616.176.523.117.965.299 1.328.544l-.768 1.568a2.88 2.88 0 0 0-1.008-.416 4.756 4.756 0 0 0-1.12-.128c-1.056 0-1.893.325-2.512.976s-.928 1.611-.928 2.88c0 .203.005.443.016.72.011.267.048.539.112.816l-.64-.704c.192-.437.453-.8.784-1.088a3.379 3.379 0 0 1 1.2-.672 4.996 4.996 0 0 1 1.52-.224c.736 0 1.392.144 1.968.432a3.333 3.333 0 0 1 1.376 1.2c.341.512.512 1.115.512 1.808 0 .736-.181 1.376-.544 1.92a3.624 3.624 0 0 1-1.472 1.264c-.619.299-1.312.448-2.08.448Zm-.112-1.632c.427 0 .805-.075 1.136-.224.331-.16.587-.384.768-.672.192-.288.288-.624.288-1.008 0-.587-.203-1.051-.608-1.392-.405-.341-.949-.512-1.632-.512-.448 0-.843.085-1.184.256-.331.16-.597.384-.8.672a1.748 1.748 0 0 0-.288.992c0 .341.091.656.272.944.181.288.443.517.784.688.352.171.773.256 1.264.256Zm10.143 1.632c-1.013 0-1.882-.213-2.608-.64-.725-.437-1.28-1.067-1.664-1.888-.384-.821-.576-1.835-.576-3.04 0-1.28.23-2.363.688-3.248.47-.885 1.115-1.557 1.936-2.016.832-.459 1.787-.688 2.864-.688a7.23 7.23 0 0 1 1.616.176c.523.117.966.299 1.328.544l-.768 1.568a2.88 2.88 0 0 0-1.008-.416 4.756 4.756 0 0 0-1.12-.128c-1.056 0-1.893.325-2.512.976-.618.651-.928 1.611-.928 2.88 0 .203.006.443.016.72.011.267.048.539.112.816l-.64-.704c.192-.437.454-.8.784-1.088a3.396 3.396 0 0 1 1.2-.672 5 5 0 0 1 1.52-.224c.736 0 1.392.144 1.968.432a3.333 3.333 0 0 1 1.376 1.2c.342.512.512 1.115.512 1.808 0 .736-.181 1.376-.544 1.92a3.617 3.617 0 0 1-1.472 1.264c-.618.299-1.312.448-2.08.448Zm-.112-1.632c.427 0 .806-.075 1.136-.224.331-.16.587-.384.768-.672.192-.288.288-.624.288-1.008 0-.587-.202-1.051-.608-1.392-.405-.341-.949-.512-1.632-.512-.448 0-.842.085-1.184.256-.33.16-.597.384-.8.672a1.748 1.748 0 0 0-.288.992c0 .341.091.656.272.944.182.288.443.517.784.688.352.171.774.256 1.264.256Zm7.088 1.472v-10.4l.912.944h-3.28V236.8h4.448V248h-2.08Z"/><path fill="#9CA3AF" d="M212.894 220.112a5.79 5.79 0 0 1-2.086-.364 5.045 5.045 0 0 1-1.652-1.05 4.942 4.942 0 0 1-1.092-1.596 5.015 5.015 0 0 1-.392-2.002c0-.728.131-1.395.392-2.002a4.789 4.789 0 0 1 1.092-1.582 4.913 4.913 0 0 1 1.666-1.05 5.645 5.645 0 0 1 2.1-.378c.775 0 1.484.126 2.128.378a4.21 4.21 0 0 1 1.638 1.134l-.868.868a3.748 3.748 0 0 0-1.316-.854 4.065 4.065 0 0 0-1.526-.28c-.56 0-1.083.093-1.568.28a3.826 3.826 0 0 0-1.246.784 3.609 3.609 0 0 0-.812 1.204 3.92 3.92 0 0 0-.28 1.498c0 .532.093 1.031.28 1.498.196.457.467.859.812 1.204.355.336.77.597 1.246.784.476.187.994.28 1.554.28.523 0 1.022-.079 1.498-.238a3.778 3.778 0 0 0 1.344-.826l.798 1.064a5.055 5.055 0 0 1-1.708.938 6.559 6.559 0 0 1-2.002.308Zm2.366-1.428v-3.64h1.344v3.822l-1.344-.182Zm8.434 1.316v-1.568l-.07-.294v-2.674c0-.569-.168-1.008-.504-1.316-.326-.317-.821-.476-1.484-.476a3.83 3.83 0 0 0-1.288.224 3.22 3.22 0 0 0-1.064.574l-.56-1.008c.383-.308.84-.541 1.372-.7a5.685 5.685 0 0 1 1.694-.252c1.018 0 1.802.247 2.352.742.551.495.826 1.251.826 2.268V220h-1.274Zm-2.436.084c-.55 0-1.036-.093-1.456-.28-.41-.187-.728-.443-.952-.77a1.998 1.998 0 0 1-.336-1.134c0-.401.094-.765.28-1.092.196-.327.509-.588.938-.784.439-.196 1.027-.294 1.764-.294h2.352v.966h-2.296c-.672 0-1.124.112-1.358.336-.233.224-.35.495-.35.812 0 .364.145.658.434.882.29.215.691.322 1.204.322.504 0 .943-.112 1.316-.336.383-.224.658-.551.826-.98l.266.924c-.177.439-.49.789-.938 1.05-.448.252-1.012.378-1.694.378Zm8.746 0c-.747 0-1.326-.201-1.736-.602-.411-.401-.616-.975-.616-1.722v-6.804h1.344v6.748c0 .401.098.709.294.924.205.215.494.322.868.322.42 0 .77-.117 1.05-.35l.42.966a1.961 1.961 0 0 1-.742.392c-.28.084-.574.126-.882.126Zm-3.612-6.398v-1.106h4.732v1.106h-4.732Zm9.918 6.398c-.793 0-1.493-.163-2.1-.49a3.6 3.6 0 0 1-1.4-1.344c-.326-.569-.49-1.223-.49-1.96 0-.737.159-1.391.476-1.96a3.503 3.503 0 0 1 1.33-1.33 3.784 3.784 0 0 1 1.918-.49c.719 0 1.354.159 1.904.476.551.317.98.765 1.288 1.344.318.569.476 1.237.476 2.002 0 .056-.004.121-.014.196 0 .075-.004.145-.014.21h-6.314v-.966h5.614l-.546.336a2.48 2.48 0 0 0-.294-1.274 2.181 2.181 0 0 0-.854-.868c-.354-.215-.77-.322-1.246-.322-.466 0-.882.107-1.246.322a2.161 2.161 0 0 0-.854.882 2.633 2.633 0 0 0-.308 1.288v.224c0 .495.112.938.336 1.33.234.383.556.681.966.896.411.215.882.322 1.414.322.439 0 .836-.075 1.19-.224.364-.149.682-.373.952-.672l.742.868a3.237 3.237 0 0 1-1.26.896 4.312 4.312 0 0 1-1.666.308Z"/><path fill="#030522" d="M207.56 248v-1.392l4.448-4.224c.373-.352.651-.661.832-.928.181-.267.299-.512.352-.736.064-.235.096-.453.096-.656 0-.512-.176-.907-.528-1.184-.352-.288-.869-.432-1.552-.432a3.74 3.74 0 0 0-1.488.288 3.008 3.008 0 0 0-1.136.88l-1.456-1.12c.437-.587 1.024-1.04 1.76-1.36.747-.331 1.579-.496 2.496-.496.811 0 1.515.133 2.112.4.608.256 1.072.624 1.392 1.104.331.48.496 1.051.496 1.712 0 .363-.048.725-.144 1.088-.096.352-.277.725-.544 1.12-.267.395-.656.837-1.168 1.328l-3.824 3.632-.432-.784h6.544V248h-8.256Zm14.129.16a4.422 4.422 0 0 1-2.4-.672c-.704-.448-1.259-1.099-1.664-1.952-.406-.864-.608-1.909-.608-3.136s.202-2.267.608-3.12c.405-.864.96-1.52 1.664-1.968a4.422 4.422 0 0 1 2.4-.672c.896 0 1.696.224 2.4.672.704.448 1.258 1.104 1.664 1.968.416.853.624 1.893.624 3.12s-.208 2.272-.624 3.136c-.406.853-.96 1.504-1.664 1.952-.704.448-1.504.672-2.4.672Zm0-1.808c.522 0 .976-.139 1.36-.416.384-.288.682-.725.896-1.312.224-.587.336-1.328.336-2.224 0-.907-.112-1.648-.336-2.224-.214-.587-.512-1.019-.896-1.296-.384-.288-.838-.432-1.36-.432-.502 0-.95.144-1.344.432-.384.277-.688.709-.912 1.296-.214.576-.32 1.317-.32 2.224 0 .896.106 1.637.32 2.224.224.587.528 1.024.912 1.312a2.28 2.28 0 0 0 1.344.416ZM231.42 248l5.04-11.2h2.048l5.056 11.2h-2.176l-4.336-10.096h.832L233.564 248h-2.144Zm2.32-2.592.56-1.632h6.048l.56 1.632h-7.168Z"/><path fill="#9CA3AF" d="M39.852 286.112a5.747 5.747 0 0 1-2.072-.364 5.082 5.082 0 0 1-1.638-1.05 5.064 5.064 0 0 1-1.078-1.596 5.01 5.01 0 0 1-.392-2.002c0-.728.13-1.395.392-2.002a4.798 4.798 0 0 1 1.092-1.582 4.798 4.798 0 0 1 1.638-1.05 5.565 5.565 0 0 1 2.072-.378c.756 0 1.451.131 2.086.392a4.21 4.21 0 0 1 1.638 1.134l-.91.882a3.558 3.558 0 0 0-1.26-.868 3.829 3.829 0 0 0-1.498-.294c-.55 0-1.064.093-1.54.28a3.697 3.697 0 0 0-1.218.784 3.604 3.604 0 0 0-.812 1.204c-.187.457-.28.957-.28 1.498s.093 1.045.28 1.512c.196.457.467.854.812 1.19.345.336.751.597 1.218.784.476.187.99.28 1.54.28a3.99 3.99 0 0 0 1.498-.28 3.642 3.642 0 0 0 1.26-.896l.91.882a4.34 4.34 0 0 1-1.638 1.148 5.471 5.471 0 0 1-2.1.392Zm5.54-.112v-10.388h1.343V286h-1.344Zm8.515 0v-1.568l-.07-.294v-2.674c0-.569-.168-1.008-.504-1.316-.326-.317-.821-.476-1.484-.476-.438 0-.868.075-1.288.224-.42.14-.774.331-1.064.574l-.56-1.008c.383-.308.84-.541 1.372-.7a5.683 5.683 0 0 1 1.694-.252c1.018 0 1.802.247 2.352.742.551.495.826 1.251.826 2.268V286h-1.274Zm-2.436.084c-.55 0-1.036-.093-1.456-.28-.41-.187-.728-.443-.952-.77a1.998 1.998 0 0 1-.336-1.134c0-.401.094-.765.28-1.092.196-.327.509-.588.938-.784.439-.196 1.027-.294 1.764-.294h2.352v.966h-2.296c-.672 0-1.124.112-1.358.336-.233.224-.35.495-.35.812 0 .364.145.658.434.882.29.215.691.322 1.204.322.504 0 .943-.112 1.316-.336.383-.224.658-.551.826-.98l.266.924c-.177.439-.49.789-.938 1.05-.448.252-1.012.378-1.694.378Zm8.326 0a6.106 6.106 0 0 1-1.764-.252c-.551-.168-.985-.373-1.303-.616l.56-1.064c.318.215.71.397 1.177.546.466.149.942.224 1.428.224.625 0 1.073-.089 1.343-.266.28-.177.42-.425.42-.742a.653.653 0 0 0-.252-.546 1.712 1.712 0 0 0-.672-.294 9.634 9.634 0 0 0-.91-.168 18.85 18.85 0 0 1-1.008-.196 4.5 4.5 0 0 1-.924-.336 1.82 1.82 0 0 1-.672-.602c-.167-.261-.252-.607-.252-1.036 0-.448.126-.84.378-1.176.253-.336.607-.593 1.065-.77.466-.187 1.017-.28 1.651-.28.486 0 .976.061 1.47.182.505.112.915.275 1.233.49l-.575 1.064a3.171 3.171 0 0 0-1.05-.462 4.842 4.842 0 0 0-1.092-.126c-.587 0-1.026.098-1.316.294-.289.187-.434.429-.434.728 0 .252.084.448.252.588.178.131.402.233.672.308.28.075.588.14.925.196.336.047.672.112 1.008.196.335.075.639.182.91.322.28.14.504.336.672.588.177.252.265.588.265 1.008 0 .448-.13.835-.392 1.162-.26.327-.63.583-1.105.77-.477.177-1.046.266-1.709.266Zm7.013 0a6.106 6.106 0 0 1-1.764-.252c-.55-.168-.985-.373-1.302-.616l.56-1.064c.317.215.71.397 1.176.546.467.149.943.224 1.428.224.626 0 1.073-.089 1.344-.266.28-.177.42-.425.42-.742a.653.653 0 0 0-.252-.546 1.712 1.712 0 0 0-.672-.294 9.64 9.64 0 0 0-.91-.168 18.85 18.85 0 0 1-1.008-.196 4.5 4.5 0 0 1-.924-.336 1.82 1.82 0 0 1-.672-.602c-.168-.261-.252-.607-.252-1.036 0-.448.126-.84.378-1.176.252-.336.607-.593 1.064-.77.467-.187 1.017-.28 1.652-.28.486 0 .976.061 1.47.182.504.112.915.275 1.232.49l-.574 1.064a3.171 3.171 0 0 0-1.05-.462 4.842 4.842 0 0 0-1.092-.126c-.588 0-1.026.098-1.316.294-.29.187-.434.429-.434.728 0 .252.084.448.252.588.178.131.402.233.672.308.28.075.588.14.924.196.336.047.672.112 1.008.196.336.075.64.182.91.322.28.14.504.336.672.588.177.252.266.588.266 1.008 0 .448-.13.835-.392 1.162-.261.327-.63.583-1.106.77-.476.177-1.045.266-1.708.266Z"/><path fill="#030522" d="M37.424 307.456h5.568v1.712h-5.568v-1.712Zm.16 4.8h6.32V314h-8.4v-11.2h8.176v1.744h-6.096v7.712Zm12.289 1.856c-.896 0-1.696-.187-2.4-.56a4.275 4.275 0 0 1-1.632-1.568c-.395-.661-.592-1.413-.592-2.256 0-.853.197-1.605.592-2.256a4.157 4.157 0 0 1 1.632-1.552c.704-.373 1.504-.56 2.4-.56.832 0 1.562.171 2.192.512.64.331 1.125.821 1.456 1.472l-1.536.896c-.256-.405-.571-.704-.944-.896a2.491 2.491 0 0 0-1.184-.288c-.491 0-.934.107-1.328.32a2.287 2.287 0 0 0-.928.928c-.224.395-.336.869-.336 1.424 0 .555.112 1.035.336 1.44.224.395.533.699.928.912.394.213.837.32 1.328.32.426 0 .821-.096 1.184-.288.373-.192.688-.491.944-.896l1.536.896a3.498 3.498 0 0 1-1.456 1.488c-.63.341-1.36.512-2.192.512Zm9.092 0c-.875 0-1.654-.187-2.337-.56a4.307 4.307 0 0 1-1.615-1.568c-.395-.661-.593-1.413-.593-2.256 0-.853.198-1.605.593-2.256a4.186 4.186 0 0 1 1.616-1.552c.682-.373 1.46-.56 2.336-.56.885 0 1.669.187 2.351.56a4.074 4.074 0 0 1 1.616 1.536c.395.651.593 1.408.593 2.272 0 .843-.198 1.595-.593 2.256a4.158 4.158 0 0 1-1.616 1.568c-.682.373-1.466.56-2.352.56Zm0-1.712c.49 0 .927-.107 1.311-.32.384-.213.683-.523.896-.928.225-.405.337-.88.337-1.424 0-.555-.112-1.029-.337-1.424a2.213 2.213 0 0 0-.895-.928 2.627 2.627 0 0 0-1.297-.32c-.49 0-.927.107-1.311.32a2.348 2.348 0 0 0-.896.928c-.225.395-.337.869-.337 1.424 0 .544.112 1.019.337 1.424.223.405.522.715.895.928.385.213.816.32 1.297.32Zm11.32-7.04c.683 0 1.29.133 1.824.4.544.267.97.677 1.28 1.232.31.544.464 1.248.464 2.112V314h-2v-4.64c0-.757-.181-1.323-.544-1.696-.352-.373-.848-.56-1.488-.56-.47 0-.885.096-1.248.288a2.01 2.01 0 0 0-.848.864c-.192.373-.288.848-.288 1.424V314h-2v-8.544h1.904v2.304l-.336-.704a2.99 2.99 0 0 1 1.296-1.248c.576-.299 1.237-.448 1.984-.448Zm9.96 8.752c-.874 0-1.653-.187-2.335-.56a4.306 4.306 0 0 1-1.616-1.568c-.395-.661-.592-1.413-.592-2.256 0-.853.197-1.605.592-2.256a4.185 4.185 0 0 1 1.616-1.552c.682-.373 1.461-.56 2.336-.56.885 0 1.67.187 2.352.56a4.074 4.074 0 0 1 1.616 1.536c.394.651.592 1.408.592 2.272 0 .843-.198 1.595-.592 2.256a4.158 4.158 0 0 1-1.616 1.568c-.683.373-1.467.56-2.352.56Zm0-1.712c.491 0 .929-.107 1.313-.32.384-.213.682-.523.896-.928.224-.405.336-.88.336-1.424 0-.555-.112-1.029-.336-1.424a2.214 2.214 0 0 0-.896-.928 2.627 2.627 0 0 0-1.296-.32c-.49 0-.928.107-1.312.32a2.347 2.347 0 0 0-.896.928c-.224.395-.336.869-.336 1.424 0 .544.112 1.019.336 1.424.224.405.522.715.896.928.384.213.816.32 1.296.32Zm17.257-7.04c.683 0 1.286.133 1.808.4.534.267.95.677 1.248 1.232.299.544.448 1.248.448 2.112V314h-2v-4.64c0-.757-.165-1.323-.496-1.696-.33-.373-.805-.56-1.424-.56a2.34 2.34 0 0 0-1.168.288 2.02 2.02 0 0 0-.784.848c-.181.373-.272.848-.272 1.424V314h-2v-4.64c0-.757-.165-1.323-.496-1.696-.33-.373-.805-.56-1.424-.56a2.34 2.34 0 0 0-1.168.288 2.02 2.02 0 0 0-.784.848c-.181.373-.272.848-.272 1.424V314h-2v-8.544h1.904v2.272l-.336-.672a2.914 2.914 0 0 1 1.248-1.264c.555-.288 1.184-.432 1.888-.432.8 0 1.494.197 2.08.592.598.395.992.992 1.184 1.792l-.784-.272c.278-.64.736-1.152 1.376-1.536.64-.384 1.382-.576 2.224-.576Zm6.608 11.856c-.416 0-.832-.069-1.248-.208a2.968 2.968 0 0 1-1.04-.576l.8-1.472c.202.181.432.325.688.432.256.107.517.16.784.16.362 0 .656-.091.88-.272.224-.181.432-.485.624-.912l.496-1.12.16-.24 3.232-7.552h1.92l-4 9.232c-.267.64-.566 1.147-.896 1.52-.32.373-.683.635-1.088.784a3.69 3.69 0 0 1-1.312.224Zm1.76-2.912-3.856-8.848h2.08l3.136 7.376-1.36 1.472Z"/><path fill="#9CA3AF" d="M211.326 286.112a6.811 6.811 0 0 1-2.142-.336c-.681-.233-1.218-.532-1.61-.896l.518-1.092c.373.327.849.597 1.428.812a5.146 5.146 0 0 0 1.806.322c.569 0 1.031-.065 1.386-.196s.616-.308.784-.532a1.31 1.31 0 0 0 .252-.784c0-.336-.112-.607-.336-.812a2.286 2.286 0 0 0-.854-.49 8.288 8.288 0 0 0-1.148-.336 23.08 23.08 0 0 1-1.274-.322 6.24 6.24 0 0 1-1.162-.49 2.42 2.42 0 0 1-.84-.784c-.215-.336-.322-.765-.322-1.288 0-.504.131-.966.392-1.386.271-.429.681-.77 1.232-1.022.56-.261 1.269-.392 2.128-.392.569 0 1.134.075 1.694.224.56.149 1.045.364 1.456.644l-.462 1.12a4.356 4.356 0 0 0-1.33-.602 5.014 5.014 0 0 0-1.358-.196c-.551 0-1.003.07-1.358.21-.355.14-.616.327-.784.56a1.36 1.36 0 0 0-.238.784c0 .345.107.621.322.826.224.205.509.369.854.49.355.121.742.233 1.162.336.42.093.84.201 1.26.322.429.121.817.28 1.162.476.355.196.639.457.854.784.215.327.322.747.322 1.26 0 .495-.135.957-.406 1.386-.271.42-.691.761-1.26 1.022-.56.252-1.269.378-2.128.378Zm8.947-.028c-.793 0-1.493-.163-2.1-.49a3.6 3.6 0 0 1-1.4-1.344c-.326-.569-.49-1.223-.49-1.96 0-.737.159-1.391.476-1.96a3.503 3.503 0 0 1 1.33-1.33 3.784 3.784 0 0 1 1.918-.49c.719 0 1.354.159 1.904.476.551.317.98.765 1.288 1.344.318.569.476 1.237.476 2.002 0 .056-.004.121-.014.196 0 .075-.004.145-.014.21h-6.314v-.966h5.614l-.546.336a2.48 2.48 0 0 0-.294-1.274 2.181 2.181 0 0 0-.854-.868c-.354-.215-.77-.322-1.246-.322-.466 0-.882.107-1.246.322a2.161 2.161 0 0 0-.854.882 2.633 2.633 0 0 0-.308 1.288v.224c0 .495.112.938.336 1.33.234.383.556.681.966.896.411.215.882.322 1.414.322.439 0 .836-.075 1.19-.224.364-.149.682-.373.952-.672l.742.868a3.237 3.237 0 0 1-1.26.896 4.312 4.312 0 0 1-1.666.308Zm9.67-.084v-1.568l-.07-.294v-2.674c0-.569-.168-1.008-.504-1.316-.327-.317-.822-.476-1.484-.476-.439 0-.868.075-1.288.224a3.21 3.21 0 0 0-1.064.574l-.56-1.008a3.97 3.97 0 0 1 1.372-.7 5.68 5.68 0 0 1 1.694-.252c1.017 0 1.801.247 2.352.742.55.495.826 1.251.826 2.268V286h-1.274Zm-2.436.084c-.551 0-1.036-.093-1.456-.28-.411-.187-.728-.443-.952-.77a1.998 1.998 0 0 1-.336-1.134c0-.401.093-.765.28-1.092.196-.327.508-.588.938-.784.438-.196 1.026-.294 1.764-.294h2.352v.966h-2.296c-.672 0-1.125.112-1.358.336-.234.224-.35.495-.35.812 0 .364.144.658.434.882.289.215.69.322 1.204.322.504 0 .942-.112 1.316-.336.382-.224.658-.551.826-.98l.266.924c-.178.439-.49.789-.938 1.05-.448.252-1.013.378-1.694.378Zm8.745 0c-.747 0-1.326-.201-1.736-.602-.411-.401-.616-.975-.616-1.722v-6.804h1.344v6.748c0 .401.098.709.294.924.205.215.494.322.868.322.42 0 .77-.117 1.05-.35l.42.966a1.961 1.961 0 0 1-.742.392c-.28.084-.574.126-.882.126Zm-3.612-6.398v-1.106h4.732v1.106h-4.732Zm8.989 6.398a6.106 6.106 0 0 1-1.764-.252c-.551-.168-.985-.373-1.302-.616l.56-1.064a4.56 4.56 0 0 0 1.176.546c.466.149.942.224 1.428.224.625 0 1.073-.089 1.344-.266.28-.177.42-.425.42-.742a.653.653 0 0 0-.252-.546 1.712 1.712 0 0 0-.672-.294 9.658 9.658 0 0 0-.91-.168 18.85 18.85 0 0 1-1.008-.196 4.5 4.5 0 0 1-.924-.336 1.82 1.82 0 0 1-.672-.602c-.168-.261-.252-.607-.252-1.036 0-.448.126-.84.378-1.176.252-.336.606-.593 1.064-.77.466-.187 1.017-.28 1.652-.28.485 0 .975.061 1.47.182.504.112.914.275 1.232.49l-.574 1.064a3.171 3.171 0 0 0-1.05-.462 4.842 4.842 0 0 0-1.092-.126c-.588 0-1.027.098-1.316.294-.29.187-.434.429-.434.728 0 .252.084.448.252.588.177.131.401.233.672.308.28.075.588.14.924.196.336.047.672.112 1.008.196.336.075.639.182.91.322.28.14.504.336.672.588.177.252.266.588.266 1.008 0 .448-.131.835-.392 1.162-.262.327-.63.583-1.106.77-.476.177-1.046.266-1.708.266Z"/><path fill="#030522" d="M211.416 314.16a8.138 8.138 0 0 1-2.32-.336c-.747-.235-1.376-.555-1.888-.96l.88-1.616c.405.331.896.597 1.472.8a5.541 5.541 0 0 0 1.824.304c.736 0 1.312-.155 1.728-.464.427-.309.64-.725.64-1.248 0-.352-.091-.661-.272-.928-.171-.267-.48-.469-.928-.608-.437-.139-1.04-.208-1.808-.208h-2.704l.576-6.096h6.576v1.744h-5.808l1.088-.992-.432 4.56-1.088-.976h2.256c1.109 0 2 .149 2.672.448.683.288 1.179.693 1.488 1.216.32.512.48 1.099.48 1.76a3.47 3.47 0 0 1-.48 1.792c-.32.544-.811.981-1.472 1.312-.651.331-1.477.496-2.48.496Zm6.432-.16v-11.2h5.248c1.344 0 2.368.267 3.072.8.704.523 1.056 1.227 1.056 2.112 0 .597-.139 1.109-.416 1.536a2.857 2.857 0 0 1-1.12.976c-.459.224-.96.336-1.504.336l.288-.576c.629 0 1.194.117 1.696.352.501.224.896.555 1.184.992.298.437.448.981.448 1.632 0 .96-.368 1.707-1.104 2.24-.736.533-1.83.8-3.28.8h-5.568Zm2.08-1.632h3.36c.778 0 1.376-.128 1.792-.384.416-.256.624-.667.624-1.232 0-.555-.208-.96-.624-1.216-.416-.267-1.014-.4-1.792-.4h-3.52v-1.616h3.104c.725 0 1.28-.128 1.664-.384.394-.256.592-.64.592-1.152 0-.523-.198-.912-.592-1.168-.384-.256-.939-.384-1.664-.384h-2.944v7.936Zm13.89-1.984v-1.664h4.4v1.664h-4.4ZM246.012 314v-10.4l.912.944h-3.28V302.8h4.448V314h-2.08Zm6.093 0v-10.4l.912.944h-3.28V302.8h4.448V314h-2.08Zm5.102 0v-11.2h5.248c1.344 0 2.368.267 3.072.8.704.523 1.056 1.227 1.056 2.112 0 .597-.139 1.109-.416 1.536a2.85 2.85 0 0 1-1.12.976c-.459.224-.96.336-1.504.336l.288-.576c.629 0 1.195.117 1.696.352.501.224.896.555 1.184.992.299.437.448.981.448 1.632 0 .96-.368 1.707-1.104 2.24-.736.533-1.829.8-3.28.8h-5.568Zm2.08-1.632h3.36c.779 0 1.376-.128 1.792-.384.416-.256.624-.667.624-1.232 0-.555-.208-.96-.624-1.216-.416-.267-1.013-.4-1.792-.4h-3.52v-1.616h3.104c.725 0 1.28-.128 1.664-.384.395-.256.592-.64.592-1.152 0-.523-.197-.912-.592-1.168-.384-.256-.939-.384-1.664-.384h-2.944v7.936Z"/></g><path stroke="#868D96" stroke-dasharray="4 4" d="M21 358h355"/><path fill="#030522" d="M25 405h-4v70h4v-70ZM29 405h-2v70h2v-70ZM35 405h-2v70h2v-70ZM47 405h-4v70h4v-70ZM55 405h-2v70h2v-70ZM63 405h-6v70h6v-70ZM67 405h-2v70h2v-70ZM73 405h-2v70h2v-70ZM79 405h-4v70h4v-70ZM89 405h-2v70h2v-70ZM101 405h-4v70h4v-70ZM107 405h-2v70h2v-70ZM111 405h-2v70h2v-70ZM123 405h-8v70h8v-70ZM129 405h-2v70h2v-70ZM139 405h-8v70h8v-70ZM147 405h-6v70h6v-70ZM151 405h-2v70h2v-70ZM155 405h-2v70h2v-70ZM167 405h-8v70h8v-70ZM173 405h-2v70h2v-70ZM179 405h-4v70h4v-70ZM185 405h-2v70h2v-70ZM189 405h-2v70h2v-70ZM201 405h-4v70h4v-70ZM207 405h-2v70h2v-70ZM211 405h-2v70h2v-70ZM221 405h-2v70h2v-70ZM227 405h-2v70h2v-70ZM233 405h-4v70h4v-70ZM243 405h-2v70h2v-70ZM251 405h-4v70h4v-70ZM261 405h-2v70h2v-70ZM267 405h-4v70h4v-70ZM277 405h-6v70h6v-70ZM283 405h-2v70h2v-70ZM287 405h-2v70h2v-70ZM297 405h-6v70h6v-70ZM303 405h-4v70h4v-70ZM309 405h-2v70h2v-70ZM319 405h-6v70h6v-70ZM325 405h-4v70h4v-70ZM331 405h-2v70h2v-70ZM339 405h-6v70h6v-70ZM349 405h-4v70h4v-70ZM355 405h-4v70h4v-70ZM367 405h-6v70h6v-70ZM371 405h-2v70h2v-70ZM377 405h-4v70h4v-70Z"/></g><defs><clipPath id="b"><path fill="#fff" d="M34 30h330v36H34z"/></clipPath><clipPath id="c"><path fill="#fff" d="M305 30.5h25v35h-25z"/></clipPath><clipPath id="d"><path fill="#fff" d="M34 90h330v230H34z"/></clipPath><filter id="a" width="398" height="513" x="0" y="0" color-interpolation-filters="sRGB" filterUnits="userSpaceOnUse"><feFlood flood-opacity="0" result="BackgroundImageFix"/><feColorMatrix in="SourceAlpha" result="hardAlpha" values="0 0 0 0 0 0 0 0 0 0 0 0 0 0 0 0 0 0 127 0"/><feOffset dy="4"/><feGaussianBlur stdDeviation="2"/><feComposite in2="hardAlpha" operator="out"/><feColorMatrix values="0 0 0 0 0 0 0 0 0 0 0 0 0 0 0 0 0 0 0.25 0"/><feBlend in2="BackgroundImageFix" result="effect1_dropShadow_2_7545"/><feBlend in="SourceGraphic" in2="effect1_dropShadow_2_7545" result="shape"/></filter></defs></svg>