<svg xmlns="http://www.w3.org/2000/svg" width="22" height="17" fill="none"><path fill="#17181C" d="M21.5 1.968a9.401 9.401 0 0 1-2.48.641c.892-.502 1.573-1.292 1.893-2.244a8.924 8.924 0 0 1-2.73.983A4.439 4.439 0 0 0 15.04.062c-2.384 0-4.303 1.825-4.303 4.063 0 .321.03.63.1.926C7.256 4.886 4.09 3.268 1.962.803a3.913 3.913 0 0 0-.59 2.053c0 1.406.769 2.653 1.913 3.374a4.45 4.45 0 0 1-1.945-.5v.045c0 1.973 1.492 3.612 3.45 3.99-.351.09-.733.134-1.13.134-.275 0-.553-.015-.815-.07.558 1.609 2.141 2.79 4.023 2.83A8.987 8.987 0 0 1 1.53 14.39c-.353 0-.691-.014-1.03-.055 1.907 1.16 4.167 1.822 6.604 1.822 7.923 0 12.254-6.19 12.254-11.556 0-.18-.007-.353-.016-.525A8.338 8.338 0 0 0 21.5 1.968Z"/></svg>